<?xml version="1.0" encoding="utf-8" standalone="no"?>
<!DOCTYPE svg PUBLIC "-//W3C//DTD SVG 1.1//EN"
  "http://www.w3.org/Graphics/SVG/1.1/DTD/svg11.dtd">
<svg xmlns:xlink="http://www.w3.org/1999/xlink" width="432pt" height="720pt" viewBox="0 0 432 720" xmlns="http://www.w3.org/2000/svg" version="1.1">
 <metadata>
  <rdf:RDF xmlns:dc="http://purl.org/dc/elements/1.1/" xmlns:cc="http://creativecommons.org/ns#" xmlns:rdf="http://www.w3.org/1999/02/22-rdf-syntax-ns#">
   <cc:Work>
    <dc:type rdf:resource="http://purl.org/dc/dcmitype/StillImage"/>
    <dc:date>2026-01-17T13:15:28.684480</dc:date>
    <dc:format>image/svg+xml</dc:format>
    <dc:creator>
     <cc:Agent>
      <dc:title>Matplotlib v3.10.8, https://matplotlib.org/</dc:title>
     </cc:Agent>
    </dc:creator>
   </cc:Work>
  </rdf:RDF>
 </metadata>
 <defs>
  <style type="text/css">*{stroke-linejoin: round; stroke-linecap: butt}</style>
 </defs>
 <g id="figure_1">
  <g id="patch_1">
   <path d="M 0 720 
L 432 720 
L 432 0 
L 0 0 
z
" style="fill: #ffffff"/>
  </g>
  <g id="axes_1">
   <g id="patch_2">
    <path d="M 39.58149 326.04375 
L 428.99976 326.04375 
L 428.99976 18.118365 
L 39.58149 18.118365 
z
" style="fill: #ffffff"/>
   </g>
   <g id="matplotlib.axis_1">
    <g id="xtick_1">
     <g id="line2d_1">
      <path d="M 57.28232 326.04375 
L 57.28232 18.118365 
" clip-path="url(#p5c4c0c9d33)" style="fill: none; stroke-dasharray: 0.5,0.825; stroke-dashoffset: 0; stroke: #b0b0b0; stroke-width: 0.5"/>
     </g>
     <g id="line2d_2">
      <defs>
       <path id="m7d54a28550" d="M 0 0 
L 0 3.5 
" style="stroke: #000000; stroke-width: 0.8"/>
      </defs>
      <g>
       <use xlink:href="#m7d54a28550" x="57.28232" y="326.04375" style="stroke: #000000; stroke-width: 0.8"/>
      </g>
     </g>
     <g id="text_1">
      <!-- 0 -->
      <g transform="translate(54.10107 340.642188) scale(0.1 -0.1)">
       <defs>
        <path id="DejaVuSans-30" d="M 2034 4250 
Q 1547 4250 1301 3770 
Q 1056 3291 1056 2328 
Q 1056 1369 1301 889 
Q 1547 409 2034 409 
Q 2525 409 2770 889 
Q 3016 1369 3016 2328 
Q 3016 3291 2770 3770 
Q 2525 4250 2034 4250 
z
M 2034 4750 
Q 2819 4750 3233 4129 
Q 3647 3509 3647 2328 
Q 3647 1150 3233 529 
Q 2819 -91 2034 -91 
Q 1250 -91 836 529 
Q 422 1150 422 2328 
Q 422 3509 836 4129 
Q 1250 4750 2034 4750 
z
" transform="scale(0.015625)"/>
       </defs>
       <use xlink:href="#DejaVuSans-30"/>
      </g>
     </g>
    </g>
    <g id="xtick_2">
     <g id="line2d_3">
      <path d="M 128.085642 326.04375 
L 128.085642 18.118365 
" clip-path="url(#p5c4c0c9d33)" style="fill: none; stroke-dasharray: 0.5,0.825; stroke-dashoffset: 0; stroke: #b0b0b0; stroke-width: 0.5"/>
     </g>
     <g id="line2d_4">
      <g>
       <use xlink:href="#m7d54a28550" x="128.085642" y="326.04375" style="stroke: #000000; stroke-width: 0.8"/>
      </g>
     </g>
     <g id="text_2">
      <!-- 1 -->
      <g transform="translate(124.904392 340.642188) scale(0.1 -0.1)">
       <defs>
        <path id="DejaVuSans-31" d="M 794 531 
L 1825 531 
L 1825 4091 
L 703 3866 
L 703 4441 
L 1819 4666 
L 2450 4666 
L 2450 531 
L 3481 531 
L 3481 0 
L 794 0 
L 794 531 
z
" transform="scale(0.015625)"/>
       </defs>
       <use xlink:href="#DejaVuSans-31"/>
      </g>
     </g>
    </g>
    <g id="xtick_3">
     <g id="line2d_5">
      <path d="M 198.888964 326.04375 
L 198.888964 18.118365 
" clip-path="url(#p5c4c0c9d33)" style="fill: none; stroke-dasharray: 0.5,0.825; stroke-dashoffset: 0; stroke: #b0b0b0; stroke-width: 0.5"/>
     </g>
     <g id="line2d_6">
      <g>
       <use xlink:href="#m7d54a28550" x="198.888964" y="326.04375" style="stroke: #000000; stroke-width: 0.8"/>
      </g>
     </g>
     <g id="text_3">
      <!-- 2 -->
      <g transform="translate(195.707714 340.642188) scale(0.1 -0.1)">
       <defs>
        <path id="DejaVuSans-32" d="M 1228 531 
L 3431 531 
L 3431 0 
L 469 0 
L 469 531 
Q 828 903 1448 1529 
Q 2069 2156 2228 2338 
Q 2531 2678 2651 2914 
Q 2772 3150 2772 3378 
Q 2772 3750 2511 3984 
Q 2250 4219 1831 4219 
Q 1534 4219 1204 4116 
Q 875 4013 500 3803 
L 500 4441 
Q 881 4594 1212 4672 
Q 1544 4750 1819 4750 
Q 2544 4750 2975 4387 
Q 3406 4025 3406 3419 
Q 3406 3131 3298 2873 
Q 3191 2616 2906 2266 
Q 2828 2175 2409 1742 
Q 1991 1309 1228 531 
z
" transform="scale(0.015625)"/>
       </defs>
       <use xlink:href="#DejaVuSans-32"/>
      </g>
     </g>
    </g>
    <g id="xtick_4">
     <g id="line2d_7">
      <path d="M 269.692286 326.04375 
L 269.692286 18.118365 
" clip-path="url(#p5c4c0c9d33)" style="fill: none; stroke-dasharray: 0.5,0.825; stroke-dashoffset: 0; stroke: #b0b0b0; stroke-width: 0.5"/>
     </g>
     <g id="line2d_8">
      <g>
       <use xlink:href="#m7d54a28550" x="269.692286" y="326.04375" style="stroke: #000000; stroke-width: 0.8"/>
      </g>
     </g>
     <g id="text_4">
      <!-- 3 -->
      <g transform="translate(266.511036 340.642188) scale(0.1 -0.1)">
       <defs>
        <path id="DejaVuSans-33" d="M 2597 2516 
Q 3050 2419 3304 2112 
Q 3559 1806 3559 1356 
Q 3559 666 3084 287 
Q 2609 -91 1734 -91 
Q 1441 -91 1130 -33 
Q 819 25 488 141 
L 488 750 
Q 750 597 1062 519 
Q 1375 441 1716 441 
Q 2309 441 2620 675 
Q 2931 909 2931 1356 
Q 2931 1769 2642 2001 
Q 2353 2234 1838 2234 
L 1294 2234 
L 1294 2753 
L 1863 2753 
Q 2328 2753 2575 2939 
Q 2822 3125 2822 3475 
Q 2822 3834 2567 4026 
Q 2313 4219 1838 4219 
Q 1578 4219 1281 4162 
Q 984 4106 628 3988 
L 628 4550 
Q 988 4650 1302 4700 
Q 1616 4750 1894 4750 
Q 2613 4750 3031 4423 
Q 3450 4097 3450 3541 
Q 3450 3153 3228 2886 
Q 3006 2619 2597 2516 
z
" transform="scale(0.015625)"/>
       </defs>
       <use xlink:href="#DejaVuSans-33"/>
      </g>
     </g>
    </g>
    <g id="xtick_5">
     <g id="line2d_9">
      <path d="M 340.495608 326.04375 
L 340.495608 18.118365 
" clip-path="url(#p5c4c0c9d33)" style="fill: none; stroke-dasharray: 0.5,0.825; stroke-dashoffset: 0; stroke: #b0b0b0; stroke-width: 0.5"/>
     </g>
     <g id="line2d_10">
      <g>
       <use xlink:href="#m7d54a28550" x="340.495608" y="326.04375" style="stroke: #000000; stroke-width: 0.8"/>
      </g>
     </g>
     <g id="text_5">
      <!-- 4 -->
      <g transform="translate(337.314358 340.642188) scale(0.1 -0.1)">
       <defs>
        <path id="DejaVuSans-34" d="M 2419 4116 
L 825 1625 
L 2419 1625 
L 2419 4116 
z
M 2253 4666 
L 3047 4666 
L 3047 1625 
L 3713 1625 
L 3713 1100 
L 3047 1100 
L 3047 0 
L 2419 0 
L 2419 1100 
L 313 1100 
L 313 1709 
L 2253 4666 
z
" transform="scale(0.015625)"/>
       </defs>
       <use xlink:href="#DejaVuSans-34"/>
      </g>
     </g>
    </g>
    <g id="xtick_6">
     <g id="line2d_11">
      <path d="M 411.29893 326.04375 
L 411.29893 18.118365 
" clip-path="url(#p5c4c0c9d33)" style="fill: none; stroke-dasharray: 0.5,0.825; stroke-dashoffset: 0; stroke: #b0b0b0; stroke-width: 0.5"/>
     </g>
     <g id="line2d_12">
      <g>
       <use xlink:href="#m7d54a28550" x="411.29893" y="326.04375" style="stroke: #000000; stroke-width: 0.8"/>
      </g>
     </g>
     <g id="text_6">
      <!-- 5 -->
      <g transform="translate(408.11768 340.642188) scale(0.1 -0.1)">
       <defs>
        <path id="DejaVuSans-35" d="M 691 4666 
L 3169 4666 
L 3169 4134 
L 1269 4134 
L 1269 2991 
Q 1406 3038 1543 3061 
Q 1681 3084 1819 3084 
Q 2600 3084 3056 2656 
Q 3513 2228 3513 1497 
Q 3513 744 3044 326 
Q 2575 -91 1722 -91 
Q 1428 -91 1123 -41 
Q 819 9 494 109 
L 494 744 
Q 775 591 1075 516 
Q 1375 441 1709 441 
Q 2250 441 2565 725 
Q 2881 1009 2881 1497 
Q 2881 1984 2565 2268 
Q 2250 2553 1709 2553 
Q 1456 2553 1204 2497 
Q 953 2441 691 2322 
L 691 4666 
z
" transform="scale(0.015625)"/>
       </defs>
       <use xlink:href="#DejaVuSans-35"/>
      </g>
     </g>
    </g>
    <g id="text_7">
     <!-- Time -->
     <g transform="translate(222.057031 354.320313) scale(0.1 -0.1)">
      <defs>
       <path id="DejaVuSans-54" d="M -19 4666 
L 3928 4666 
L 3928 4134 
L 2272 4134 
L 2272 0 
L 1638 0 
L 1638 4134 
L -19 4134 
L -19 4666 
z
" transform="scale(0.015625)"/>
       <path id="DejaVuSans-69" d="M 603 3500 
L 1178 3500 
L 1178 0 
L 603 0 
L 603 3500 
z
M 603 4863 
L 1178 4863 
L 1178 4134 
L 603 4134 
L 603 4863 
z
" transform="scale(0.015625)"/>
       <path id="DejaVuSans-6d" d="M 3328 2828 
Q 3544 3216 3844 3400 
Q 4144 3584 4550 3584 
Q 5097 3584 5394 3201 
Q 5691 2819 5691 2113 
L 5691 0 
L 5113 0 
L 5113 2094 
Q 5113 2597 4934 2840 
Q 4756 3084 4391 3084 
Q 3944 3084 3684 2787 
Q 3425 2491 3425 1978 
L 3425 0 
L 2847 0 
L 2847 2094 
Q 2847 2600 2669 2842 
Q 2491 3084 2119 3084 
Q 1678 3084 1418 2786 
Q 1159 2488 1159 1978 
L 1159 0 
L 581 0 
L 581 3500 
L 1159 3500 
L 1159 2956 
Q 1356 3278 1631 3431 
Q 1906 3584 2284 3584 
Q 2666 3584 2933 3390 
Q 3200 3197 3328 2828 
z
" transform="scale(0.015625)"/>
       <path id="DejaVuSans-65" d="M 3597 1894 
L 3597 1613 
L 953 1613 
Q 991 1019 1311 708 
Q 1631 397 2203 397 
Q 2534 397 2845 478 
Q 3156 559 3463 722 
L 3463 178 
Q 3153 47 2828 -22 
Q 2503 -91 2169 -91 
Q 1331 -91 842 396 
Q 353 884 353 1716 
Q 353 2575 817 3079 
Q 1281 3584 2069 3584 
Q 2775 3584 3186 3129 
Q 3597 2675 3597 1894 
z
M 3022 2063 
Q 3016 2534 2758 2815 
Q 2500 3097 2075 3097 
Q 1594 3097 1305 2825 
Q 1016 2553 972 2059 
L 3022 2063 
z
" transform="scale(0.015625)"/>
      </defs>
      <use xlink:href="#DejaVuSans-54"/>
      <use xlink:href="#DejaVuSans-69" transform="translate(57.958984 0)"/>
      <use xlink:href="#DejaVuSans-6d" transform="translate(85.742188 0)"/>
      <use xlink:href="#DejaVuSans-65" transform="translate(183.154297 0)"/>
     </g>
    </g>
   </g>
   <g id="matplotlib.axis_2">
    <g id="ytick_1">
     <g id="line2d_13">
      <path d="M 39.58149 312.047142 
L 428.99976 312.047142 
" clip-path="url(#p5c4c0c9d33)" style="fill: none; stroke-dasharray: 0.5,0.825; stroke-dashoffset: 0; stroke: #b0b0b0; stroke-width: 0.5"/>
     </g>
     <g id="line2d_14">
      <defs>
       <path id="m5c59f1f06e" d="M 0 0 
L -3.5 0 
" style="stroke: #000000; stroke-width: 0.8"/>
      </defs>
      <g>
       <use xlink:href="#m5c59f1f06e" x="39.58149" y="312.047142" style="stroke: #000000; stroke-width: 0.8"/>
      </g>
     </g>
     <g id="text_8">
      <!-- 0.0 -->
      <g transform="translate(16.678365 315.84636) scale(0.1 -0.1)">
       <defs>
        <path id="DejaVuSans-2e" d="M 684 794 
L 1344 794 
L 1344 0 
L 684 0 
L 684 794 
z
" transform="scale(0.015625)"/>
       </defs>
       <use xlink:href="#DejaVuSans-30"/>
       <use xlink:href="#DejaVuSans-2e" transform="translate(63.623047 0)"/>
       <use xlink:href="#DejaVuSans-30" transform="translate(95.410156 0)"/>
      </g>
     </g>
    </g>
    <g id="ytick_2">
     <g id="line2d_15">
      <path d="M 39.58149 258.794788 
L 428.99976 258.794788 
" clip-path="url(#p5c4c0c9d33)" style="fill: none; stroke-dasharray: 0.5,0.825; stroke-dashoffset: 0; stroke: #b0b0b0; stroke-width: 0.5"/>
     </g>
     <g id="line2d_16">
      <g>
       <use xlink:href="#m5c59f1f06e" x="39.58149" y="258.794788" style="stroke: #000000; stroke-width: 0.8"/>
      </g>
     </g>
     <g id="text_9">
      <!-- 0.2 -->
      <g transform="translate(16.678365 262.594007) scale(0.1 -0.1)">
       <use xlink:href="#DejaVuSans-30"/>
       <use xlink:href="#DejaVuSans-2e" transform="translate(63.623047 0)"/>
       <use xlink:href="#DejaVuSans-32" transform="translate(95.410156 0)"/>
      </g>
     </g>
    </g>
    <g id="ytick_3">
     <g id="line2d_17">
      <path d="M 39.58149 205.542435 
L 428.99976 205.542435 
" clip-path="url(#p5c4c0c9d33)" style="fill: none; stroke-dasharray: 0.5,0.825; stroke-dashoffset: 0; stroke: #b0b0b0; stroke-width: 0.5"/>
     </g>
     <g id="line2d_18">
      <g>
       <use xlink:href="#m5c59f1f06e" x="39.58149" y="205.542435" style="stroke: #000000; stroke-width: 0.8"/>
      </g>
     </g>
     <g id="text_10">
      <!-- 0.4 -->
      <g transform="translate(16.678365 209.341654) scale(0.1 -0.1)">
       <use xlink:href="#DejaVuSans-30"/>
       <use xlink:href="#DejaVuSans-2e" transform="translate(63.623047 0)"/>
       <use xlink:href="#DejaVuSans-34" transform="translate(95.410156 0)"/>
      </g>
     </g>
    </g>
    <g id="ytick_4">
     <g id="line2d_19">
      <path d="M 39.58149 152.290082 
L 428.99976 152.290082 
" clip-path="url(#p5c4c0c9d33)" style="fill: none; stroke-dasharray: 0.5,0.825; stroke-dashoffset: 0; stroke: #b0b0b0; stroke-width: 0.5"/>
     </g>
     <g id="line2d_20">
      <g>
       <use xlink:href="#m5c59f1f06e" x="39.58149" y="152.290082" style="stroke: #000000; stroke-width: 0.8"/>
      </g>
     </g>
     <g id="text_11">
      <!-- 0.6 -->
      <g transform="translate(16.678365 156.089301) scale(0.1 -0.1)">
       <defs>
        <path id="DejaVuSans-36" d="M 2113 2584 
Q 1688 2584 1439 2293 
Q 1191 2003 1191 1497 
Q 1191 994 1439 701 
Q 1688 409 2113 409 
Q 2538 409 2786 701 
Q 3034 994 3034 1497 
Q 3034 2003 2786 2293 
Q 2538 2584 2113 2584 
z
M 3366 4563 
L 3366 3988 
Q 3128 4100 2886 4159 
Q 2644 4219 2406 4219 
Q 1781 4219 1451 3797 
Q 1122 3375 1075 2522 
Q 1259 2794 1537 2939 
Q 1816 3084 2150 3084 
Q 2853 3084 3261 2657 
Q 3669 2231 3669 1497 
Q 3669 778 3244 343 
Q 2819 -91 2113 -91 
Q 1303 -91 875 529 
Q 447 1150 447 2328 
Q 447 3434 972 4092 
Q 1497 4750 2381 4750 
Q 2619 4750 2861 4703 
Q 3103 4656 3366 4563 
z
" transform="scale(0.015625)"/>
       </defs>
       <use xlink:href="#DejaVuSans-30"/>
       <use xlink:href="#DejaVuSans-2e" transform="translate(63.623047 0)"/>
       <use xlink:href="#DejaVuSans-36" transform="translate(95.410156 0)"/>
      </g>
     </g>
    </g>
    <g id="ytick_5">
     <g id="line2d_21">
      <path d="M 39.58149 99.037729 
L 428.99976 99.037729 
" clip-path="url(#p5c4c0c9d33)" style="fill: none; stroke-dasharray: 0.5,0.825; stroke-dashoffset: 0; stroke: #b0b0b0; stroke-width: 0.5"/>
     </g>
     <g id="line2d_22">
      <g>
       <use xlink:href="#m5c59f1f06e" x="39.58149" y="99.037729" style="stroke: #000000; stroke-width: 0.8"/>
      </g>
     </g>
     <g id="text_12">
      <!-- 0.8 -->
      <g transform="translate(16.678365 102.836947) scale(0.1 -0.1)">
       <defs>
        <path id="DejaVuSans-38" d="M 2034 2216 
Q 1584 2216 1326 1975 
Q 1069 1734 1069 1313 
Q 1069 891 1326 650 
Q 1584 409 2034 409 
Q 2484 409 2743 651 
Q 3003 894 3003 1313 
Q 3003 1734 2745 1975 
Q 2488 2216 2034 2216 
z
M 1403 2484 
Q 997 2584 770 2862 
Q 544 3141 544 3541 
Q 544 4100 942 4425 
Q 1341 4750 2034 4750 
Q 2731 4750 3128 4425 
Q 3525 4100 3525 3541 
Q 3525 3141 3298 2862 
Q 3072 2584 2669 2484 
Q 3125 2378 3379 2068 
Q 3634 1759 3634 1313 
Q 3634 634 3220 271 
Q 2806 -91 2034 -91 
Q 1263 -91 848 271 
Q 434 634 434 1313 
Q 434 1759 690 2068 
Q 947 2378 1403 2484 
z
M 1172 3481 
Q 1172 3119 1398 2916 
Q 1625 2713 2034 2713 
Q 2441 2713 2670 2916 
Q 2900 3119 2900 3481 
Q 2900 3844 2670 4047 
Q 2441 4250 2034 4250 
Q 1625 4250 1398 4047 
Q 1172 3844 1172 3481 
z
" transform="scale(0.015625)"/>
       </defs>
       <use xlink:href="#DejaVuSans-30"/>
       <use xlink:href="#DejaVuSans-2e" transform="translate(63.623047 0)"/>
       <use xlink:href="#DejaVuSans-38" transform="translate(95.410156 0)"/>
      </g>
     </g>
    </g>
    <g id="ytick_6">
     <g id="line2d_23">
      <path d="M 39.58149 45.785375 
L 428.99976 45.785375 
" clip-path="url(#p5c4c0c9d33)" style="fill: none; stroke-dasharray: 0.5,0.825; stroke-dashoffset: 0; stroke: #b0b0b0; stroke-width: 0.5"/>
     </g>
     <g id="line2d_24">
      <g>
       <use xlink:href="#m5c59f1f06e" x="39.58149" y="45.785375" style="stroke: #000000; stroke-width: 0.8"/>
      </g>
     </g>
     <g id="text_13">
      <!-- 1.0 -->
      <g transform="translate(16.678365 49.584594) scale(0.1 -0.1)">
       <use xlink:href="#DejaVuSans-31"/>
       <use xlink:href="#DejaVuSans-2e" transform="translate(63.623047 0)"/>
       <use xlink:href="#DejaVuSans-30" transform="translate(95.410156 0)"/>
      </g>
     </g>
    </g>
    <g id="text_14">
     <!-- MSD -->
     <g transform="translate(10.598677 183.419339) rotate(-90) scale(0.1 -0.1)">
      <defs>
       <path id="DejaVuSans-4d" d="M 628 4666 
L 1569 4666 
L 2759 1491 
L 3956 4666 
L 4897 4666 
L 4897 0 
L 4281 0 
L 4281 4097 
L 3078 897 
L 2444 897 
L 1241 4097 
L 1241 0 
L 628 0 
L 628 4666 
z
" transform="scale(0.015625)"/>
       <path id="DejaVuSans-53" d="M 3425 4513 
L 3425 3897 
Q 3066 4069 2747 4153 
Q 2428 4238 2131 4238 
Q 1616 4238 1336 4038 
Q 1056 3838 1056 3469 
Q 1056 3159 1242 3001 
Q 1428 2844 1947 2747 
L 2328 2669 
Q 3034 2534 3370 2195 
Q 3706 1856 3706 1288 
Q 3706 609 3251 259 
Q 2797 -91 1919 -91 
Q 1588 -91 1214 -16 
Q 841 59 441 206 
L 441 856 
Q 825 641 1194 531 
Q 1563 422 1919 422 
Q 2459 422 2753 634 
Q 3047 847 3047 1241 
Q 3047 1584 2836 1778 
Q 2625 1972 2144 2069 
L 1759 2144 
Q 1053 2284 737 2584 
Q 422 2884 422 3419 
Q 422 4038 858 4394 
Q 1294 4750 2059 4750 
Q 2388 4750 2728 4690 
Q 3069 4631 3425 4513 
z
" transform="scale(0.015625)"/>
       <path id="DejaVuSans-44" d="M 1259 4147 
L 1259 519 
L 2022 519 
Q 2988 519 3436 956 
Q 3884 1394 3884 2338 
Q 3884 3275 3436 3711 
Q 2988 4147 2022 4147 
L 1259 4147 
z
M 628 4666 
L 1925 4666 
Q 3281 4666 3915 4102 
Q 4550 3538 4550 2338 
Q 4550 1131 3912 565 
Q 3275 0 1925 0 
L 628 0 
L 628 4666 
z
" transform="scale(0.015625)"/>
      </defs>
      <use xlink:href="#DejaVuSans-4d"/>
      <use xlink:href="#DejaVuSans-53" transform="translate(86.279297 0)"/>
      <use xlink:href="#DejaVuSans-44" transform="translate(149.755859 0)"/>
     </g>
    </g>
    <g id="text_15">
     <!-- 1e−11 -->
     <g transform="translate(39.58149 15.118365) scale(0.1 -0.1)">
      <defs>
       <path id="DejaVuSans-2212" d="M 678 2272 
L 4684 2272 
L 4684 1741 
L 678 1741 
L 678 2272 
z
" transform="scale(0.015625)"/>
      </defs>
      <use xlink:href="#DejaVuSans-31"/>
      <use xlink:href="#DejaVuSans-65" transform="translate(63.623047 0)"/>
      <use xlink:href="#DejaVuSans-2212" transform="translate(125.146484 0)"/>
      <use xlink:href="#DejaVuSans-31" transform="translate(208.935547 0)"/>
      <use xlink:href="#DejaVuSans-31" transform="translate(272.558594 0)"/>
     </g>
    </g>
   </g>
   <g id="line2d_25">
    <path d="M 57.28232 312.047142 
L 58.698387 285.143283 
L 60.114453 262.34912 
L 61.53052 242.35473 
L 62.946586 224.624637 
L 65.070686 201.401145 
L 67.194786 181.585921 
L 69.318885 164.478297 
L 71.442985 149.556059 
L 73.567084 136.406246 
L 75.691184 124.86873 
L 77.815284 114.767766 
L 79.939383 105.752038 
L 82.063483 97.805044 
L 84.187583 90.78621 
L 86.311682 84.640654 
L 87.727749 81.02082 
L 89.851848 76.175158 
L 91.975948 71.794925 
L 94.100048 67.90555 
L 96.224147 64.465383 
L 98.348247 61.512512 
L 100.472347 58.987439 
L 104.012513 55.271478 
L 106.136613 53.370158 
L 112.508911 48.304852 
L 115.341044 46.62672 
L 119.589244 44.562119 
L 123.12941 43.178346 
L 124.545476 42.745872 
L 131.625808 40.839148 
L 135.874008 40.145555 
L 137.998107 39.754561 
L 143.662373 39.154517 
L 149.326639 38.859644 
L 154.282871 38.310889 
L 159.239104 37.909087 
L 167.735502 36.876982 
L 175.523868 36.969555 
L 178.356001 36.458597 
L 180.4801 36.171587 
L 182.6042 35.903007 
L 186.852399 35.144929 
L 196.056831 35.238632 
L 197.472898 35.38795 
L 200.305031 35.87762 
L 201.721097 35.982963 
L 207.385363 35.702752 
L 217.297828 34.875957 
L 223.670127 34.865135 
L 229.334392 35.163273 
L 230.750459 35.173818 
L 232.874559 35.303135 
L 234.290625 35.306627 
L 235.706691 35.428216 
L 237.830791 35.462772 
L 241.370957 35.517441 
L 245.619156 35.679802 
L 247.743256 35.850375 
L 251.283422 35.734949 
L 256.239655 34.748661 
L 260.487854 34.408742 
L 261.903921 34.44972 
L 266.15212 34.840911 
L 271.108352 35.87046 
L 273.940485 36.314236 
L 276.064585 36.459691 
L 278.188685 36.765158 
L 280.312784 36.818684 
L 284.560983 36.664118 
L 285.97705 36.604654 
L 292.349349 35.993609 
L 294.473449 36.05722 
L 296.597548 36.105446 
L 298.013615 36.027301 
L 299.429681 36.07765 
L 301.553781 35.958929 
L 305.80198 35.625914 
L 307.218046 35.705711 
L 309.342146 35.542805 
L 310.758213 35.53503 
L 312.882312 35.801883 
L 315.714445 36.308542 
L 319.254611 36.321827 
L 323.50281 36.523061 
L 326.334943 36.992362 
L 331.291176 37.398989 
L 334.123309 37.922398 
L 336.955442 38.44984 
L 338.371508 38.800731 
L 339.787575 39.028803 
L 341.203641 39.046664 
L 353.948239 40.28923 
L 356.072339 40.206567 
L 358.196438 39.981016 
L 359.612505 39.811191 
L 362.444637 39.324799 
L 365.27677 38.881689 
L 365.984804 38.837913 
L 368.108903 38.993893 
L 370.941036 38.972464 
L 373.065136 39.368671 
L 373.773169 39.638166 
L 375.897269 39.821191 
L 378.021368 39.699055 
L 380.145468 39.630407 
L 381.561534 39.522228 
L 382.977601 39.362683 
L 383.685634 39.360436 
L 385.1017 39.875441 
L 385.809734 39.977737 
L 386.517767 39.896652 
L 387.933833 39.368188 
L 391.473999 37.39411 
L 393.598099 36.807468 
L 394.306132 36.514262 
L 395.722199 35.433999 
L 396.430232 35.398614 
L 397.138265 35.541121 
L 397.846298 35.453701 
L 399.970398 34.313127 
L 400.678431 34.092408 
L 401.386464 34.023087 
L 402.094498 34.185592 
L 403.510564 35.135082 
L 404.218597 35.150662 
L 405.634664 35.813014 
L 406.342697 36.294816 
L 407.05073 35.902817 
L 407.758763 36.129163 
L 409.17483 37.539958 
L 409.882863 36.700277 
L 410.590896 35.387023 
L 411.29893 33.643487 
L 411.29893 33.643487 
" clip-path="url(#p5c4c0c9d33)" style="fill: none; stroke: #1f77b4; stroke-opacity: 0.3; stroke-width: 1.5; stroke-linecap: square"/>
   </g>
   <g id="line2d_26">
    <path d="M 57.28232 312.047142 
L 58.698387 293.389304 
L 60.822487 269.226889 
L 62.946586 248.169159 
L 65.070686 229.487815 
L 67.194786 212.861536 
L 69.318885 198.095226 
L 71.442985 184.92103 
L 73.567084 173.044312 
L 75.691184 162.457071 
L 77.815284 153.071316 
L 79.939383 144.634245 
L 82.063483 137.07847 
L 84.187583 130.321051 
L 86.311682 124.345214 
L 88.435782 119.16353 
L 90.559882 114.579855 
L 92.683981 110.463201 
L 94.808081 106.787299 
L 96.932181 103.494136 
L 99.05628 100.530886 
L 101.18038 98.018349 
L 104.012513 95.009949 
L 106.136613 93.049831 
L 111.800878 88.531453 
L 114.633011 86.658268 
L 116.757111 85.550974 
L 120.297277 83.992557 
L 124.545476 82.526846 
L 130.917775 80.818701 
L 135.165974 80.290966 
L 144.370406 79.218516 
L 149.326639 78.725091 
L 152.158772 78.359368 
L 160.65517 77.502379 
L 162.77927 77.207162 
L 168.443536 76.763056 
L 176.231901 76.552535 
L 179.772067 76.065477 
L 182.6042 75.841082 
L 186.144366 75.332271 
L 192.516665 75.468332 
L 194.640765 75.481193 
L 196.764864 75.579646 
L 201.013064 76.114475 
L 202.42913 76.118869 
L 210.217496 75.503516 
L 218.005861 74.730218 
L 221.546027 74.679659 
L 225.794226 74.952898 
L 228.626359 75.115678 
L 230.750459 75.106031 
L 233.582592 75.18871 
L 239.246858 75.244814 
L 244.911123 75.54147 
L 248.451289 75.795856 
L 251.283422 75.686712 
L 255.531622 74.978748 
L 263.319987 74.497835 
L 264.736053 74.547909 
L 266.860153 74.910466 
L 268.984253 75.338551 
L 272.524419 75.904389 
L 274.648518 76.220408 
L 281.020817 76.671915 
L 283.85295 76.635885 
L 285.97705 76.585628 
L 290.225249 76.296862 
L 291.641316 76.126943 
L 294.473449 75.996479 
L 297.305581 76.095463 
L 300.137714 76.298442 
L 302.969847 76.10882 
L 306.510013 75.742996 
L 307.92608 75.704136 
L 310.050179 75.634152 
L 312.882312 75.945056 
L 315.714445 76.31435 
L 321.378711 76.243052 
L 323.50281 76.136352 
L 327.042977 76.535264 
L 329.167076 76.836132 
L 339.787575 78.599545 
L 341.911674 78.535275 
L 348.992006 78.998164 
L 351.116106 79.381158 
L 353.240206 79.789581 
L 355.364305 79.876646 
L 358.196438 79.696794 
L 363.860704 79.3631 
L 365.984804 78.979145 
L 370.233003 79.071188 
L 376.605302 79.619369 
L 379.437435 79.413249 
L 380.853501 79.376639 
L 383.685634 78.895779 
L 385.1017 79.211128 
L 385.809734 79.287118 
L 386.517767 79.223521 
L 388.641867 78.560728 
L 390.765966 77.906108 
L 394.306132 77.583893 
L 395.014166 77.247921 
L 395.722199 76.737674 
L 397.846298 76.382589 
L 399.970398 75.076927 
L 400.678431 74.792879 
L 401.386464 74.708723 
L 402.094498 74.784382 
L 403.510564 75.78612 
L 404.218597 75.90443 
L 404.926631 76.221011 
L 406.342697 76.379239 
L 407.05073 75.705821 
L 407.758763 75.763 
L 408.466797 76.018749 
L 409.17483 76.522228 
L 409.882863 75.511735 
L 410.590896 74.226784 
L 411.29893 72.105283 
L 411.29893 72.105283 
" clip-path="url(#p5c4c0c9d33)" style="fill: none; stroke: #ff7f0e; stroke-opacity: 0.3; stroke-width: 1.5; stroke-linecap: square"/>
   </g>
   <g id="line2d_27">
    <path d="M 57.28232 312.047142 
L 58.698387 303.801121 
L 60.114453 297.513973 
L 61.53052 292.49327 
L 62.946586 288.50262 
L 64.362653 285.297892 
L 65.778719 282.786351 
L 67.194786 280.771527 
L 68.610852 279.131456 
L 70.026918 277.783339 
L 71.442985 276.68217 
L 72.859051 275.794917 
L 74.983151 274.748288 
L 77.107251 273.972434 
L 79.939383 273.164935 
L 82.771516 272.670815 
L 85.603649 272.390575 
L 92.683981 272.017073 
L 96.932181 271.981822 
L 104.012513 272.30867 
L 108.260712 272.323632 
L 111.800878 272.293909 
L 116.757111 272.411937 
L 122.421377 272.292477 
L 131.625808 272.172358 
L 143.662373 271.916978 
L 150.034672 272.207104 
L 164.195336 272.210272 
L 166.319436 272.122943 
L 169.151569 272.209154 
L 176.231901 272.362578 
L 184.7283 272.005403 
L 188.976499 271.776521 
L 193.932732 271.784596 
L 203.137163 271.876448 
L 208.093396 271.894104 
L 210.925529 272.004505 
L 214.465695 272.164407 
L 245.619156 272.122052 
L 261.195887 271.96315 
L 264.736053 272.088202 
L 269.692286 272.187372 
L 281.020817 272.152406 
L 285.269017 272.065803 
L 287.393116 271.959898 
L 289.517216 271.904914 
L 293.765415 272.029061 
L 295.181482 272.128644 
L 296.597548 272.074636 
L 299.429681 271.839253 
L 302.969847 271.797229 
L 310.050179 271.932078 
L 312.174279 271.87735 
L 321.378711 272.319736 
L 325.62691 272.579839 
L 328.459043 272.46595 
L 330.583143 272.257088 
L 341.203641 272.576215 
L 347.57594 273.046966 
L 349.70004 272.921698 
L 351.824139 272.649518 
L 361.028571 271.973343 
L 362.444637 271.801566 
L 364.568737 271.720375 
L 368.108903 272.067128 
L 369.52497 271.95937 
L 370.233003 271.842029 
L 373.065136 272.060136 
L 374.481202 272.223782 
L 378.021368 272.321508 
L 379.437435 272.281188 
L 381.561534 272.30165 
L 385.809734 272.737761 
L 387.933833 272.583487 
L 388.641867 272.458494 
L 391.473999 271.581053 
L 395.722199 270.743467 
L 397.138265 270.975038 
L 397.846298 271.118254 
L 399.970398 271.283341 
L 402.802531 271.444565 
L 404.926631 271.299033 
L 405.634664 271.546193 
L 406.342697 271.962719 
L 409.17483 273.064872 
L 409.882863 273.235684 
L 410.590896 273.207381 
L 411.29893 273.585346 
L 411.29893 273.585346 
" clip-path="url(#p5c4c0c9d33)" style="fill: none; stroke: #2ca02c; stroke-opacity: 0.3; stroke-width: 1.5; stroke-linecap: square"/>
   </g>
   <g id="line2d_28">
    <path d="M 57.28232 312.047142 
L 58.698387 290.279664 
L 60.822487 262.09018 
L 62.946586 237.522828 
L 65.070686 215.727928 
L 67.194786 196.330601 
L 69.318885 179.10324 
L 71.442985 163.733345 
L 73.567084 149.877173 
L 75.691184 137.525393 
L 77.815284 126.575345 
L 79.939383 116.732096 
L 82.063483 107.917025 
L 84.187583 100.03337 
L 86.311682 93.061559 
L 88.435782 87.016262 
L 90.559882 81.668641 
L 92.683981 76.865878 
L 94.808081 72.577325 
L 96.932181 68.735302 
L 99.05628 65.278177 
L 101.18038 62.346883 
L 104.012513 58.837084 
L 106.136613 56.55028 
L 111.092845 51.885912 
L 113.216945 50.145178 
L 115.341044 48.628545 
L 118.173177 47.020614 
L 121.00531 45.676978 
L 124.545476 44.273463 
L 130.917775 42.280628 
L 134.457941 41.76473 
L 147.202539 40.076796 
L 150.034672 39.703851 
L 151.450738 39.487053 
L 160.65517 38.411585 
L 162.77927 38.067166 
L 168.443536 37.549042 
L 175.523868 37.421958 
L 180.4801 36.685126 
L 182.6042 36.473405 
L 186.144366 35.879792 
L 192.516665 36.038531 
L 193.932732 36.083972 
L 195.348798 36.075328 
L 197.472898 36.288434 
L 199.596997 36.681423 
L 202.42913 36.797491 
L 209.509462 36.17908 
L 216.589795 35.241371 
L 220.129961 35.084093 
L 225.086193 35.332593 
L 227.918326 35.644513 
L 230.750459 35.615846 
L 232.874559 35.731785 
L 235.706691 35.761205 
L 242.07899 35.92169 
L 247.743256 36.448629 
L 251.283422 36.293307 
L 255.531622 35.467349 
L 262.611954 34.898692 
L 264.736053 34.964704 
L 266.15212 35.193476 
L 268.984253 35.88712 
L 271.816386 36.415541 
L 275.356552 36.988533 
L 280.312784 37.450842 
L 288.10115 37.279187 
L 290.225249 37.005149 
L 291.641316 36.80691 
L 294.473449 36.654702 
L 297.305581 36.770184 
L 300.137714 37.006992 
L 302.969847 36.785766 
L 305.80198 36.359244 
L 308.634113 36.259204 
L 310.050179 36.231987 
L 312.174279 36.479916 
L 315.714445 37.025551 
L 321.378711 36.942371 
L 323.50281 36.817887 
L 324.918877 37.012883 
L 325.62691 37.047088 
L 327.042977 37.283284 
L 328.459043 37.496169 
L 339.787575 39.691613 
L 341.203641 39.595999 
L 346.867907 39.833541 
L 351.116106 40.603494 
L 353.240206 41.079988 
L 355.364305 41.181563 
L 358.196438 40.971736 
L 363.860704 40.582427 
L 365.984804 40.134479 
L 368.816936 40.138181 
L 369.52497 40.268759 
L 370.233003 40.241863 
L 375.897269 40.877222 
L 377.313335 40.798794 
L 378.021368 40.654279 
L 380.853501 40.598222 
L 383.685634 40.037219 
L 385.1017 40.405126 
L 385.809734 40.49378 
L 386.517767 40.419584 
L 388.641867 39.646326 
L 390.765966 38.882603 
L 394.306132 38.506685 
L 395.014166 38.114718 
L 395.722199 37.519429 
L 397.846298 37.105164 
L 399.970398 35.581891 
L 400.678431 35.250502 
L 401.386464 35.15232 
L 402.094498 35.240589 
L 403.510564 36.409283 
L 404.218597 36.547311 
L 404.926631 36.916655 
L 406.342697 37.101255 
L 407.05073 36.315601 
L 407.758763 36.382309 
L 408.466797 36.680683 
L 409.17483 37.268076 
L 409.882863 36.089167 
L 410.590896 34.590057 
L 411.29893 32.114973 
L 411.29893 32.114973 
" clip-path="url(#p5c4c0c9d33)" style="fill: none; stroke-dasharray: 5.55,2.4; stroke-dashoffset: 0; stroke: #ff0000; stroke-opacity: 0.3; stroke-width: 1.5"/>
   </g>
   <g id="patch_3">
    <path d="M 39.58149 326.04375 
L 39.58149 18.118365 
" style="fill: none; stroke: #000000; stroke-width: 0.8; stroke-linejoin: miter; stroke-linecap: square"/>
   </g>
   <g id="patch_4">
    <path d="M 428.99976 326.04375 
L 428.99976 18.118365 
" style="fill: none; stroke: #000000; stroke-width: 0.8; stroke-linejoin: miter; stroke-linecap: square"/>
   </g>
   <g id="patch_5">
    <path d="M 39.58149 326.04375 
L 428.99976 326.04375 
" style="fill: none; stroke: #000000; stroke-width: 0.8; stroke-linejoin: miter; stroke-linecap: square"/>
   </g>
   <g id="patch_6">
    <path d="M 39.58149 18.118365 
L 428.99976 18.118365 
" style="fill: none; stroke: #000000; stroke-width: 0.8; stroke-linejoin: miter; stroke-linecap: square"/>
   </g>
   <g id="text_16">
    <!-- Cylinder MSD -->
    <g transform="translate(193.933125 12.118365) scale(0.12 -0.12)">
     <defs>
      <path id="DejaVuSans-43" d="M 4122 4306 
L 4122 3641 
Q 3803 3938 3442 4084 
Q 3081 4231 2675 4231 
Q 1875 4231 1450 3742 
Q 1025 3253 1025 2328 
Q 1025 1406 1450 917 
Q 1875 428 2675 428 
Q 3081 428 3442 575 
Q 3803 722 4122 1019 
L 4122 359 
Q 3791 134 3420 21 
Q 3050 -91 2638 -91 
Q 1578 -91 968 557 
Q 359 1206 359 2328 
Q 359 3453 968 4101 
Q 1578 4750 2638 4750 
Q 3056 4750 3426 4639 
Q 3797 4528 4122 4306 
z
" transform="scale(0.015625)"/>
      <path id="DejaVuSans-79" d="M 2059 -325 
Q 1816 -950 1584 -1140 
Q 1353 -1331 966 -1331 
L 506 -1331 
L 506 -850 
L 844 -850 
Q 1081 -850 1212 -737 
Q 1344 -625 1503 -206 
L 1606 56 
L 191 3500 
L 800 3500 
L 1894 763 
L 2988 3500 
L 3597 3500 
L 2059 -325 
z
" transform="scale(0.015625)"/>
      <path id="DejaVuSans-6c" d="M 603 4863 
L 1178 4863 
L 1178 0 
L 603 0 
L 603 4863 
z
" transform="scale(0.015625)"/>
      <path id="DejaVuSans-6e" d="M 3513 2113 
L 3513 0 
L 2938 0 
L 2938 2094 
Q 2938 2591 2744 2837 
Q 2550 3084 2163 3084 
Q 1697 3084 1428 2787 
Q 1159 2491 1159 1978 
L 1159 0 
L 581 0 
L 581 3500 
L 1159 3500 
L 1159 2956 
Q 1366 3272 1645 3428 
Q 1925 3584 2291 3584 
Q 2894 3584 3203 3211 
Q 3513 2838 3513 2113 
z
" transform="scale(0.015625)"/>
      <path id="DejaVuSans-64" d="M 2906 2969 
L 2906 4863 
L 3481 4863 
L 3481 0 
L 2906 0 
L 2906 525 
Q 2725 213 2448 61 
Q 2172 -91 1784 -91 
Q 1150 -91 751 415 
Q 353 922 353 1747 
Q 353 2572 751 3078 
Q 1150 3584 1784 3584 
Q 2172 3584 2448 3432 
Q 2725 3281 2906 2969 
z
M 947 1747 
Q 947 1113 1208 752 
Q 1469 391 1925 391 
Q 2381 391 2643 752 
Q 2906 1113 2906 1747 
Q 2906 2381 2643 2742 
Q 2381 3103 1925 3103 
Q 1469 3103 1208 2742 
Q 947 2381 947 1747 
z
" transform="scale(0.015625)"/>
      <path id="DejaVuSans-72" d="M 2631 2963 
Q 2534 3019 2420 3045 
Q 2306 3072 2169 3072 
Q 1681 3072 1420 2755 
Q 1159 2438 1159 1844 
L 1159 0 
L 581 0 
L 581 3500 
L 1159 3500 
L 1159 2956 
Q 1341 3275 1631 3429 
Q 1922 3584 2338 3584 
Q 2397 3584 2469 3576 
Q 2541 3569 2628 3553 
L 2631 2963 
z
" transform="scale(0.015625)"/>
      <path id="DejaVuSans-20" transform="scale(0.015625)"/>
     </defs>
     <use xlink:href="#DejaVuSans-43"/>
     <use xlink:href="#DejaVuSans-79" transform="translate(69.824219 0)"/>
     <use xlink:href="#DejaVuSans-6c" transform="translate(129.003906 0)"/>
     <use xlink:href="#DejaVuSans-69" transform="translate(156.787109 0)"/>
     <use xlink:href="#DejaVuSans-6e" transform="translate(184.570312 0)"/>
     <use xlink:href="#DejaVuSans-64" transform="translate(247.949219 0)"/>
     <use xlink:href="#DejaVuSans-65" transform="translate(311.425781 0)"/>
     <use xlink:href="#DejaVuSans-72" transform="translate(372.949219 0)"/>
     <use xlink:href="#DejaVuSans-20" transform="translate(414.0625 0)"/>
     <use xlink:href="#DejaVuSans-4d" transform="translate(445.849609 0)"/>
     <use xlink:href="#DejaVuSans-53" transform="translate(532.128906 0)"/>
     <use xlink:href="#DejaVuSans-44" transform="translate(595.605469 0)"/>
    </g>
   </g>
   <g id="legend_1">
    <g id="line2d_29">
     <path d="M 344.90601 279.1525 
L 352.90601 279.1525 
L 360.90601 279.1525 
" style="fill: none; stroke: #1f77b4; stroke-opacity: 0.3; stroke-width: 1.5; stroke-linecap: square"/>
    </g>
    <g id="text_17">
     <!-- Mean MSD -->
     <g transform="translate(367.30601 281.9525) scale(0.08 -0.08)">
      <defs>
       <path id="DejaVuSans-61" d="M 2194 1759 
Q 1497 1759 1228 1600 
Q 959 1441 959 1056 
Q 959 750 1161 570 
Q 1363 391 1709 391 
Q 2188 391 2477 730 
Q 2766 1069 2766 1631 
L 2766 1759 
L 2194 1759 
z
M 3341 1997 
L 3341 0 
L 2766 0 
L 2766 531 
Q 2569 213 2275 61 
Q 1981 -91 1556 -91 
Q 1019 -91 701 211 
Q 384 513 384 1019 
Q 384 1609 779 1909 
Q 1175 2209 1959 2209 
L 2766 2209 
L 2766 2266 
Q 2766 2663 2505 2880 
Q 2244 3097 1772 3097 
Q 1472 3097 1187 3025 
Q 903 2953 641 2809 
L 641 3341 
Q 956 3463 1253 3523 
Q 1550 3584 1831 3584 
Q 2591 3584 2966 3190 
Q 3341 2797 3341 1997 
z
" transform="scale(0.015625)"/>
      </defs>
      <use xlink:href="#DejaVuSans-4d"/>
      <use xlink:href="#DejaVuSans-65" transform="translate(86.279297 0)"/>
      <use xlink:href="#DejaVuSans-61" transform="translate(147.802734 0)"/>
      <use xlink:href="#DejaVuSans-6e" transform="translate(209.082031 0)"/>
      <use xlink:href="#DejaVuSans-20" transform="translate(272.460938 0)"/>
      <use xlink:href="#DejaVuSans-4d" transform="translate(304.248047 0)"/>
      <use xlink:href="#DejaVuSans-53" transform="translate(390.527344 0)"/>
      <use xlink:href="#DejaVuSans-44" transform="translate(454.003906 0)"/>
     </g>
    </g>
    <g id="line2d_30">
     <path d="M 344.90601 290.895 
L 352.90601 290.895 
L 360.90601 290.895 
" style="fill: none; stroke: #ff7f0e; stroke-opacity: 0.3; stroke-width: 1.5; stroke-linecap: square"/>
    </g>
    <g id="text_18">
     <!-- Mean MSD xy -->
     <g transform="translate(367.30601 293.695) scale(0.08 -0.08)">
      <defs>
       <path id="DejaVuSans-78" d="M 3513 3500 
L 2247 1797 
L 3578 0 
L 2900 0 
L 1881 1375 
L 863 0 
L 184 0 
L 1544 1831 
L 300 3500 
L 978 3500 
L 1906 2253 
L 2834 3500 
L 3513 3500 
z
" transform="scale(0.015625)"/>
      </defs>
      <use xlink:href="#DejaVuSans-4d"/>
      <use xlink:href="#DejaVuSans-65" transform="translate(86.279297 0)"/>
      <use xlink:href="#DejaVuSans-61" transform="translate(147.802734 0)"/>
      <use xlink:href="#DejaVuSans-6e" transform="translate(209.082031 0)"/>
      <use xlink:href="#DejaVuSans-20" transform="translate(272.460938 0)"/>
      <use xlink:href="#DejaVuSans-4d" transform="translate(304.248047 0)"/>
      <use xlink:href="#DejaVuSans-53" transform="translate(390.527344 0)"/>
      <use xlink:href="#DejaVuSans-44" transform="translate(454.003906 0)"/>
      <use xlink:href="#DejaVuSans-20" transform="translate(531.005859 0)"/>
      <use xlink:href="#DejaVuSans-78" transform="translate(562.792969 0)"/>
      <use xlink:href="#DejaVuSans-79" transform="translate(621.972656 0)"/>
     </g>
    </g>
    <g id="line2d_31">
     <path d="M 344.90601 302.6375 
L 352.90601 302.6375 
L 360.90601 302.6375 
" style="fill: none; stroke: #2ca02c; stroke-opacity: 0.3; stroke-width: 1.5; stroke-linecap: square"/>
    </g>
    <g id="text_19">
     <!-- Mean MSD z -->
     <g transform="translate(367.30601 305.4375) scale(0.08 -0.08)">
      <defs>
       <path id="DejaVuSans-7a" d="M 353 3500 
L 3084 3500 
L 3084 2975 
L 922 459 
L 3084 459 
L 3084 0 
L 275 0 
L 275 525 
L 2438 3041 
L 353 3041 
L 353 3500 
z
" transform="scale(0.015625)"/>
      </defs>
      <use xlink:href="#DejaVuSans-4d"/>
      <use xlink:href="#DejaVuSans-65" transform="translate(86.279297 0)"/>
      <use xlink:href="#DejaVuSans-61" transform="translate(147.802734 0)"/>
      <use xlink:href="#DejaVuSans-6e" transform="translate(209.082031 0)"/>
      <use xlink:href="#DejaVuSans-20" transform="translate(272.460938 0)"/>
      <use xlink:href="#DejaVuSans-4d" transform="translate(304.248047 0)"/>
      <use xlink:href="#DejaVuSans-53" transform="translate(390.527344 0)"/>
      <use xlink:href="#DejaVuSans-44" transform="translate(454.003906 0)"/>
      <use xlink:href="#DejaVuSans-20" transform="translate(531.005859 0)"/>
      <use xlink:href="#DejaVuSans-7a" transform="translate(562.792969 0)"/>
     </g>
    </g>
    <g id="line2d_32">
     <path d="M 344.90601 314.38 
L 352.90601 314.38 
L 360.90601 314.38 
" style="fill: none; stroke-dasharray: 5.55,2.4; stroke-dashoffset: 0; stroke: #ff0000; stroke-opacity: 0.3; stroke-width: 1.5"/>
    </g>
    <g id="text_20">
     <!-- Adjusted XY -->
     <g transform="translate(367.30601 317.18) scale(0.08 -0.08)">
      <defs>
       <path id="DejaVuSans-41" d="M 2188 4044 
L 1331 1722 
L 3047 1722 
L 2188 4044 
z
M 1831 4666 
L 2547 4666 
L 4325 0 
L 3669 0 
L 3244 1197 
L 1141 1197 
L 716 0 
L 50 0 
L 1831 4666 
z
" transform="scale(0.015625)"/>
       <path id="DejaVuSans-6a" d="M 603 3500 
L 1178 3500 
L 1178 -63 
Q 1178 -731 923 -1031 
Q 669 -1331 103 -1331 
L -116 -1331 
L -116 -844 
L 38 -844 
Q 366 -844 484 -692 
Q 603 -541 603 -63 
L 603 3500 
z
M 603 4863 
L 1178 4863 
L 1178 4134 
L 603 4134 
L 603 4863 
z
" transform="scale(0.015625)"/>
       <path id="DejaVuSans-75" d="M 544 1381 
L 544 3500 
L 1119 3500 
L 1119 1403 
Q 1119 906 1312 657 
Q 1506 409 1894 409 
Q 2359 409 2629 706 
Q 2900 1003 2900 1516 
L 2900 3500 
L 3475 3500 
L 3475 0 
L 2900 0 
L 2900 538 
Q 2691 219 2414 64 
Q 2138 -91 1772 -91 
Q 1169 -91 856 284 
Q 544 659 544 1381 
z
M 1991 3584 
L 1991 3584 
z
" transform="scale(0.015625)"/>
       <path id="DejaVuSans-73" d="M 2834 3397 
L 2834 2853 
Q 2591 2978 2328 3040 
Q 2066 3103 1784 3103 
Q 1356 3103 1142 2972 
Q 928 2841 928 2578 
Q 928 2378 1081 2264 
Q 1234 2150 1697 2047 
L 1894 2003 
Q 2506 1872 2764 1633 
Q 3022 1394 3022 966 
Q 3022 478 2636 193 
Q 2250 -91 1575 -91 
Q 1294 -91 989 -36 
Q 684 19 347 128 
L 347 722 
Q 666 556 975 473 
Q 1284 391 1588 391 
Q 1994 391 2212 530 
Q 2431 669 2431 922 
Q 2431 1156 2273 1281 
Q 2116 1406 1581 1522 
L 1381 1569 
Q 847 1681 609 1914 
Q 372 2147 372 2553 
Q 372 3047 722 3315 
Q 1072 3584 1716 3584 
Q 2034 3584 2315 3537 
Q 2597 3491 2834 3397 
z
" transform="scale(0.015625)"/>
       <path id="DejaVuSans-74" d="M 1172 4494 
L 1172 3500 
L 2356 3500 
L 2356 3053 
L 1172 3053 
L 1172 1153 
Q 1172 725 1289 603 
Q 1406 481 1766 481 
L 2356 481 
L 2356 0 
L 1766 0 
Q 1100 0 847 248 
Q 594 497 594 1153 
L 594 3053 
L 172 3053 
L 172 3500 
L 594 3500 
L 594 4494 
L 1172 4494 
z
" transform="scale(0.015625)"/>
       <path id="DejaVuSans-58" d="M 403 4666 
L 1081 4666 
L 2241 2931 
L 3406 4666 
L 4084 4666 
L 2584 2425 
L 4184 0 
L 3506 0 
L 2194 1984 
L 872 0 
L 191 0 
L 1856 2491 
L 403 4666 
z
" transform="scale(0.015625)"/>
       <path id="DejaVuSans-59" d="M -13 4666 
L 666 4666 
L 1959 2747 
L 3244 4666 
L 3922 4666 
L 2272 2222 
L 2272 0 
L 1638 0 
L 1638 2222 
L -13 4666 
z
" transform="scale(0.015625)"/>
      </defs>
      <use xlink:href="#DejaVuSans-41"/>
      <use xlink:href="#DejaVuSans-64" transform="translate(66.658203 0)"/>
      <use xlink:href="#DejaVuSans-6a" transform="translate(130.134766 0)"/>
      <use xlink:href="#DejaVuSans-75" transform="translate(157.917969 0)"/>
      <use xlink:href="#DejaVuSans-73" transform="translate(221.296875 0)"/>
      <use xlink:href="#DejaVuSans-74" transform="translate(273.396484 0)"/>
      <use xlink:href="#DejaVuSans-65" transform="translate(312.605469 0)"/>
      <use xlink:href="#DejaVuSans-64" transform="translate(374.128906 0)"/>
      <use xlink:href="#DejaVuSans-20" transform="translate(437.605469 0)"/>
      <use xlink:href="#DejaVuSans-58" transform="translate(469.392578 0)"/>
      <use xlink:href="#DejaVuSans-59" transform="translate(537.898438 0)"/>
     </g>
    </g>
   </g>
  </g>
  <g id="axes_2">
   <g id="patch_7">
    <path d="M 39.58149 686.64351 
L 428.99976 686.64351 
L 428.99976 378.718125 
L 39.58149 378.718125 
z
" style="fill: #ffffff"/>
   </g>
   <g id="matplotlib.axis_3">
    <g id="xtick_7">
     <g id="line2d_33">
      <path d="M 57.28232 686.64351 
L 57.28232 378.718125 
" clip-path="url(#p67eecf70af)" style="fill: none; stroke: #b0b0b0; stroke-width: 0.8; stroke-linecap: square"/>
     </g>
     <g id="line2d_34">
      <g>
       <use xlink:href="#m7d54a28550" x="57.28232" y="686.64351" style="stroke: #000000; stroke-width: 0.8"/>
      </g>
     </g>
     <g id="text_21">
      <!-- 0 -->
      <g transform="translate(54.10107 701.241948) scale(0.1 -0.1)">
       <use xlink:href="#DejaVuSans-30"/>
      </g>
     </g>
    </g>
    <g id="xtick_8">
     <g id="line2d_35">
      <path d="M 128.085642 686.64351 
L 128.085642 378.718125 
" clip-path="url(#p67eecf70af)" style="fill: none; stroke: #b0b0b0; stroke-width: 0.8; stroke-linecap: square"/>
     </g>
     <g id="line2d_36">
      <g>
       <use xlink:href="#m7d54a28550" x="128.085642" y="686.64351" style="stroke: #000000; stroke-width: 0.8"/>
      </g>
     </g>
     <g id="text_22">
      <!-- 1 -->
      <g transform="translate(124.904392 701.241948) scale(0.1 -0.1)">
       <use xlink:href="#DejaVuSans-31"/>
      </g>
     </g>
    </g>
    <g id="xtick_9">
     <g id="line2d_37">
      <path d="M 198.888964 686.64351 
L 198.888964 378.718125 
" clip-path="url(#p67eecf70af)" style="fill: none; stroke: #b0b0b0; stroke-width: 0.8; stroke-linecap: square"/>
     </g>
     <g id="line2d_38">
      <g>
       <use xlink:href="#m7d54a28550" x="198.888964" y="686.64351" style="stroke: #000000; stroke-width: 0.8"/>
      </g>
     </g>
     <g id="text_23">
      <!-- 2 -->
      <g transform="translate(195.707714 701.241948) scale(0.1 -0.1)">
       <use xlink:href="#DejaVuSans-32"/>
      </g>
     </g>
    </g>
    <g id="xtick_10">
     <g id="line2d_39">
      <path d="M 269.692286 686.64351 
L 269.692286 378.718125 
" clip-path="url(#p67eecf70af)" style="fill: none; stroke: #b0b0b0; stroke-width: 0.8; stroke-linecap: square"/>
     </g>
     <g id="line2d_40">
      <g>
       <use xlink:href="#m7d54a28550" x="269.692286" y="686.64351" style="stroke: #000000; stroke-width: 0.8"/>
      </g>
     </g>
     <g id="text_24">
      <!-- 3 -->
      <g transform="translate(266.511036 701.241948) scale(0.1 -0.1)">
       <use xlink:href="#DejaVuSans-33"/>
      </g>
     </g>
    </g>
    <g id="xtick_11">
     <g id="line2d_41">
      <path d="M 340.495608 686.64351 
L 340.495608 378.718125 
" clip-path="url(#p67eecf70af)" style="fill: none; stroke: #b0b0b0; stroke-width: 0.8; stroke-linecap: square"/>
     </g>
     <g id="line2d_42">
      <g>
       <use xlink:href="#m7d54a28550" x="340.495608" y="686.64351" style="stroke: #000000; stroke-width: 0.8"/>
      </g>
     </g>
     <g id="text_25">
      <!-- 4 -->
      <g transform="translate(337.314358 701.241948) scale(0.1 -0.1)">
       <use xlink:href="#DejaVuSans-34"/>
      </g>
     </g>
    </g>
    <g id="xtick_12">
     <g id="line2d_43">
      <path d="M 411.29893 686.64351 
L 411.29893 378.718125 
" clip-path="url(#p67eecf70af)" style="fill: none; stroke: #b0b0b0; stroke-width: 0.8; stroke-linecap: square"/>
     </g>
     <g id="line2d_44">
      <g>
       <use xlink:href="#m7d54a28550" x="411.29893" y="686.64351" style="stroke: #000000; stroke-width: 0.8"/>
      </g>
     </g>
     <g id="text_26">
      <!-- 5 -->
      <g transform="translate(408.11768 701.241948) scale(0.1 -0.1)">
       <use xlink:href="#DejaVuSans-35"/>
      </g>
     </g>
    </g>
    <g id="text_27">
     <!-- Time [s] -->
     <g transform="translate(213.961719 714.920072) scale(0.1 -0.1)">
      <defs>
       <path id="DejaVuSans-5b" d="M 550 4863 
L 1875 4863 
L 1875 4416 
L 1125 4416 
L 1125 -397 
L 1875 -397 
L 1875 -844 
L 550 -844 
L 550 4863 
z
" transform="scale(0.015625)"/>
       <path id="DejaVuSans-5d" d="M 1947 4863 
L 1947 -844 
L 622 -844 
L 622 -397 
L 1369 -397 
L 1369 4416 
L 622 4416 
L 622 4863 
L 1947 4863 
z
" transform="scale(0.015625)"/>
      </defs>
      <use xlink:href="#DejaVuSans-54"/>
      <use xlink:href="#DejaVuSans-69" transform="translate(57.958984 0)"/>
      <use xlink:href="#DejaVuSans-6d" transform="translate(85.742188 0)"/>
      <use xlink:href="#DejaVuSans-65" transform="translate(183.154297 0)"/>
      <use xlink:href="#DejaVuSans-20" transform="translate(244.677734 0)"/>
      <use xlink:href="#DejaVuSans-5b" transform="translate(276.464844 0)"/>
      <use xlink:href="#DejaVuSans-73" transform="translate(315.478516 0)"/>
      <use xlink:href="#DejaVuSans-5d" transform="translate(367.578125 0)"/>
     </g>
    </g>
   </g>
   <g id="matplotlib.axis_4">
    <g id="ytick_7">
     <g id="line2d_45">
      <path d="M 39.58149 672.646902 
L 428.99976 672.646902 
" clip-path="url(#p67eecf70af)" style="fill: none; stroke: #b0b0b0; stroke-width: 0.8; stroke-linecap: square"/>
     </g>
     <g id="line2d_46">
      <g>
       <use xlink:href="#m5c59f1f06e" x="39.58149" y="672.646902" style="stroke: #000000; stroke-width: 0.8"/>
      </g>
     </g>
     <g id="text_28">
      <!-- 0.0 -->
      <g transform="translate(16.678365 676.44612) scale(0.1 -0.1)">
       <use xlink:href="#DejaVuSans-30"/>
       <use xlink:href="#DejaVuSans-2e" transform="translate(63.623047 0)"/>
       <use xlink:href="#DejaVuSans-30" transform="translate(95.410156 0)"/>
      </g>
     </g>
    </g>
    <g id="ytick_8">
     <g id="line2d_47">
      <path d="M 39.58149 636.555569 
L 428.99976 636.555569 
" clip-path="url(#p67eecf70af)" style="fill: none; stroke: #b0b0b0; stroke-width: 0.8; stroke-linecap: square"/>
     </g>
     <g id="line2d_48">
      <g>
       <use xlink:href="#m5c59f1f06e" x="39.58149" y="636.555569" style="stroke: #000000; stroke-width: 0.8"/>
      </g>
     </g>
     <g id="text_29">
      <!-- 0.2 -->
      <g transform="translate(16.678365 640.354788) scale(0.1 -0.1)">
       <use xlink:href="#DejaVuSans-30"/>
       <use xlink:href="#DejaVuSans-2e" transform="translate(63.623047 0)"/>
       <use xlink:href="#DejaVuSans-32" transform="translate(95.410156 0)"/>
      </g>
     </g>
    </g>
    <g id="ytick_9">
     <g id="line2d_49">
      <path d="M 39.58149 600.464236 
L 428.99976 600.464236 
" clip-path="url(#p67eecf70af)" style="fill: none; stroke: #b0b0b0; stroke-width: 0.8; stroke-linecap: square"/>
     </g>
     <g id="line2d_50">
      <g>
       <use xlink:href="#m5c59f1f06e" x="39.58149" y="600.464236" style="stroke: #000000; stroke-width: 0.8"/>
      </g>
     </g>
     <g id="text_30">
      <!-- 0.4 -->
      <g transform="translate(16.678365 604.263455) scale(0.1 -0.1)">
       <use xlink:href="#DejaVuSans-30"/>
       <use xlink:href="#DejaVuSans-2e" transform="translate(63.623047 0)"/>
       <use xlink:href="#DejaVuSans-34" transform="translate(95.410156 0)"/>
      </g>
     </g>
    </g>
    <g id="ytick_10">
     <g id="line2d_51">
      <path d="M 39.58149 564.372903 
L 428.99976 564.372903 
" clip-path="url(#p67eecf70af)" style="fill: none; stroke: #b0b0b0; stroke-width: 0.8; stroke-linecap: square"/>
     </g>
     <g id="line2d_52">
      <g>
       <use xlink:href="#m5c59f1f06e" x="39.58149" y="564.372903" style="stroke: #000000; stroke-width: 0.8"/>
      </g>
     </g>
     <g id="text_31">
      <!-- 0.6 -->
      <g transform="translate(16.678365 568.172122) scale(0.1 -0.1)">
       <use xlink:href="#DejaVuSans-30"/>
       <use xlink:href="#DejaVuSans-2e" transform="translate(63.623047 0)"/>
       <use xlink:href="#DejaVuSans-36" transform="translate(95.410156 0)"/>
      </g>
     </g>
    </g>
    <g id="ytick_11">
     <g id="line2d_53">
      <path d="M 39.58149 528.281571 
L 428.99976 528.281571 
" clip-path="url(#p67eecf70af)" style="fill: none; stroke: #b0b0b0; stroke-width: 0.8; stroke-linecap: square"/>
     </g>
     <g id="line2d_54">
      <g>
       <use xlink:href="#m5c59f1f06e" x="39.58149" y="528.281571" style="stroke: #000000; stroke-width: 0.8"/>
      </g>
     </g>
     <g id="text_32">
      <!-- 0.8 -->
      <g transform="translate(16.678365 532.080789) scale(0.1 -0.1)">
       <use xlink:href="#DejaVuSans-30"/>
       <use xlink:href="#DejaVuSans-2e" transform="translate(63.623047 0)"/>
       <use xlink:href="#DejaVuSans-38" transform="translate(95.410156 0)"/>
      </g>
     </g>
    </g>
    <g id="ytick_12">
     <g id="line2d_55">
      <path d="M 39.58149 492.190238 
L 428.99976 492.190238 
" clip-path="url(#p67eecf70af)" style="fill: none; stroke: #b0b0b0; stroke-width: 0.8; stroke-linecap: square"/>
     </g>
     <g id="line2d_56">
      <g>
       <use xlink:href="#m5c59f1f06e" x="39.58149" y="492.190238" style="stroke: #000000; stroke-width: 0.8"/>
      </g>
     </g>
     <g id="text_33">
      <!-- 1.0 -->
      <g transform="translate(16.678365 495.989457) scale(0.1 -0.1)">
       <use xlink:href="#DejaVuSans-31"/>
       <use xlink:href="#DejaVuSans-2e" transform="translate(63.623047 0)"/>
       <use xlink:href="#DejaVuSans-30" transform="translate(95.410156 0)"/>
      </g>
     </g>
    </g>
    <g id="ytick_13">
     <g id="line2d_57">
      <path d="M 39.58149 456.098905 
L 428.99976 456.098905 
" clip-path="url(#p67eecf70af)" style="fill: none; stroke: #b0b0b0; stroke-width: 0.8; stroke-linecap: square"/>
     </g>
     <g id="line2d_58">
      <g>
       <use xlink:href="#m5c59f1f06e" x="39.58149" y="456.098905" style="stroke: #000000; stroke-width: 0.8"/>
      </g>
     </g>
     <g id="text_34">
      <!-- 1.2 -->
      <g transform="translate(16.678365 459.898124) scale(0.1 -0.1)">
       <use xlink:href="#DejaVuSans-31"/>
       <use xlink:href="#DejaVuSans-2e" transform="translate(63.623047 0)"/>
       <use xlink:href="#DejaVuSans-32" transform="translate(95.410156 0)"/>
      </g>
     </g>
    </g>
    <g id="ytick_14">
     <g id="line2d_59">
      <path d="M 39.58149 420.007572 
L 428.99976 420.007572 
" clip-path="url(#p67eecf70af)" style="fill: none; stroke: #b0b0b0; stroke-width: 0.8; stroke-linecap: square"/>
     </g>
     <g id="line2d_60">
      <g>
       <use xlink:href="#m5c59f1f06e" x="39.58149" y="420.007572" style="stroke: #000000; stroke-width: 0.8"/>
      </g>
     </g>
     <g id="text_35">
      <!-- 1.4 -->
      <g transform="translate(16.678365 423.806791) scale(0.1 -0.1)">
       <use xlink:href="#DejaVuSans-31"/>
       <use xlink:href="#DejaVuSans-2e" transform="translate(63.623047 0)"/>
       <use xlink:href="#DejaVuSans-34" transform="translate(95.410156 0)"/>
      </g>
     </g>
    </g>
    <g id="ytick_15">
     <g id="line2d_61">
      <path d="M 39.58149 383.91624 
L 428.99976 383.91624 
" clip-path="url(#p67eecf70af)" style="fill: none; stroke: #b0b0b0; stroke-width: 0.8; stroke-linecap: square"/>
     </g>
     <g id="line2d_62">
      <g>
       <use xlink:href="#m5c59f1f06e" x="39.58149" y="383.91624" style="stroke: #000000; stroke-width: 0.8"/>
      </g>
     </g>
     <g id="text_36">
      <!-- 1.6 -->
      <g transform="translate(16.678365 387.715458) scale(0.1 -0.1)">
       <use xlink:href="#DejaVuSans-31"/>
       <use xlink:href="#DejaVuSans-2e" transform="translate(63.623047 0)"/>
       <use xlink:href="#DejaVuSans-36" transform="translate(95.410156 0)"/>
      </g>
     </g>
    </g>
    <g id="text_37">
     <!-- MSD [m^2] -->
     <g transform="translate(10.598677 561.75113) rotate(-90) scale(0.1 -0.1)">
      <defs>
       <path id="DejaVuSans-5e" d="M 2988 4666 
L 4684 2925 
L 4056 2925 
L 2681 4159 
L 1306 2925 
L 678 2925 
L 2375 4666 
L 2988 4666 
z
" transform="scale(0.015625)"/>
      </defs>
      <use xlink:href="#DejaVuSans-4d"/>
      <use xlink:href="#DejaVuSans-53" transform="translate(86.279297 0)"/>
      <use xlink:href="#DejaVuSans-44" transform="translate(149.755859 0)"/>
      <use xlink:href="#DejaVuSans-20" transform="translate(226.757812 0)"/>
      <use xlink:href="#DejaVuSans-5b" transform="translate(258.544922 0)"/>
      <use xlink:href="#DejaVuSans-6d" transform="translate(297.558594 0)"/>
      <use xlink:href="#DejaVuSans-5e" transform="translate(394.970703 0)"/>
      <use xlink:href="#DejaVuSans-32" transform="translate(478.759766 0)"/>
      <use xlink:href="#DejaVuSans-5d" transform="translate(542.382812 0)"/>
     </g>
    </g>
    <g id="text_38">
     <!-- 1e−12 -->
     <g transform="translate(39.58149 375.718125) scale(0.1 -0.1)">
      <use xlink:href="#DejaVuSans-31"/>
      <use xlink:href="#DejaVuSans-65" transform="translate(63.623047 0)"/>
      <use xlink:href="#DejaVuSans-2212" transform="translate(125.146484 0)"/>
      <use xlink:href="#DejaVuSans-31" transform="translate(208.935547 0)"/>
      <use xlink:href="#DejaVuSans-32" transform="translate(272.558594 0)"/>
     </g>
    </g>
   </g>
   <g id="line2d_63">
    <path d="M 57.28232 672.646902 
L 58.698387 616.760192 
L 60.114453 574.149578 
L 61.53052 540.122185 
L 62.946586 513.075895 
L 64.362653 491.35612 
L 65.778719 474.334364 
L 67.194786 460.679064 
L 68.610852 449.563623 
L 70.026918 440.426874 
L 71.442985 432.963794 
L 72.859051 426.950511 
L 74.275118 421.966555 
L 75.691184 417.895089 
L 77.815284 413.047825 
L 79.939383 409.126027 
L 81.35545 407.346921 
L 82.771516 405.777175 
L 83.47955 405.165976 
L 85.603649 403.877869 
L 87.019716 403.251684 
L 89.851848 402.373132 
L 91.267915 401.839424 
L 93.392015 401.207913 
L 94.808081 400.936429 
L 96.932181 401.10758 
L 97.640214 401.389068 
L 99.05628 402.133745 
L 100.472347 402.768331 
L 102.596446 403.336054 
L 103.30448 403.261326 
L 104.720546 403.438862 
L 106.136613 403.721264 
L 106.844646 403.793844 
L 108.260712 403.424173 
L 109.676779 403.113532 
L 111.092845 403.071651 
L 116.049078 404.147127 
L 121.00531 403.385265 
L 121.713343 403.365874 
L 122.421377 403.21302 
L 123.837443 403.094763 
L 125.253509 403.063981 
L 127.377609 403.116394 
L 128.793675 402.841858 
L 130.209742 402.731896 
L 134.457941 401.631009 
L 137.290074 400.709637 
L 138.706141 400.604397 
L 140.122207 400.570133 
L 142.246307 400.322634 
L 142.95434 400.400798 
L 146.494506 401.677255 
L 150.742705 402.662296 
L 152.866805 402.459896 
L 153.574838 402.315973 
L 154.990905 402.353217 
L 157.115004 402.99671 
L 159.239104 403.118254 
L 162.071237 402.89194 
L 162.77927 402.919995 
L 164.195336 402.655879 
L 165.611403 402.080972 
L 167.735502 402.096782 
L 169.151569 402.648303 
L 171.983702 403.157527 
L 174.107801 403.374211 
L 175.523868 403.688062 
L 176.231901 403.688123 
L 179.064034 402.993225 
L 181.896167 402.216497 
L 182.6042 401.969975 
L 183.312233 401.853513 
L 184.7283 401.267402 
L 186.852399 400.247209 
L 188.976499 399.716172 
L 191.100599 399.528213 
L 194.640765 399.863776 
L 196.056831 399.505535 
L 197.472898 399.553753 
L 198.888964 399.828531 
L 199.596997 399.959787 
L 201.013064 400.498544 
L 203.137163 400.39342 
L 203.845197 400.313083 
L 204.55323 400.077423 
L 205.969296 400.187106 
L 210.217496 400.960406 
L 212.341595 401.800121 
L 215.173728 402.354134 
L 216.589795 402.382622 
L 218.005861 402.474803 
L 219.421927 402.944239 
L 221.546027 402.914308 
L 222.962094 402.666747 
L 223.670127 402.341607 
L 224.37816 402.161434 
L 226.50226 402.112243 
L 227.918326 402.241592 
L 228.626359 402.264169 
L 230.042426 402.010119 
L 231.458492 402.10451 
L 234.290625 402.384101 
L 234.998658 402.736783 
L 237.830791 403.260996 
L 238.538824 403.16101 
L 239.246858 402.92202 
L 240.662924 403.002402 
L 242.787024 402.435878 
L 243.495057 402.418345 
L 244.911123 402.149297 
L 248.451289 401.786321 
L 249.159323 401.757111 
L 250.575389 401.967396 
L 251.991455 401.692327 
L 253.407522 401.063296 
L 255.531622 400.471529 
L 256.239655 400.349457 
L 259.071788 400.48017 
L 259.779821 400.67975 
L 260.487854 400.761557 
L 261.903921 401.290731 
L 263.319987 401.810521 
L 264.736053 401.828562 
L 266.15212 402.20709 
L 268.276219 402.146375 
L 269.692286 402.500679 
L 270.400319 402.524384 
L 271.816386 402.896458 
L 273.232452 402.922036 
L 274.648518 402.399536 
L 277.480651 402.427074 
L 279.604751 402.618701 
L 280.312784 402.497759 
L 282.436884 401.869975 
L 284.560983 401.66405 
L 285.97705 401.679227 
L 286.685083 401.394256 
L 287.393116 400.958995 
L 288.10115 400.68771 
L 290.225249 400.674267 
L 291.641316 400.709787 
L 293.765415 401.427738 
L 294.473449 401.961945 
L 295.181482 402.102658 
L 295.889515 402.092261 
L 296.597548 401.73662 
L 298.013615 400.687479 
L 298.721648 400.522731 
L 299.429681 400.141329 
L 300.845748 399.753717 
L 301.553781 399.676485 
L 302.969847 399.856515 
L 303.67788 400.019572 
L 305.093947 400.543702 
L 305.80198 400.755183 
L 306.510013 401.100875 
L 307.218046 401.208903 
L 307.92608 400.953462 
L 310.050179 400.770446 
L 311.466246 400.366992 
L 312.174279 400.399529 
L 313.590345 400.814052 
L 315.006412 401.547136 
L 317.130512 401.370764 
L 317.838545 401.529183 
L 319.254611 402.194427 
L 319.962644 402.450033 
L 320.670678 403.02693 
L 322.794777 404.132667 
L 323.50281 404.171168 
L 325.62691 405.160589 
L 326.334943 405.1557 
L 327.75101 404.743516 
L 328.459043 404.388714 
L 329.875109 403.426891 
L 330.583143 402.97317 
L 331.291176 403.073567 
L 331.999209 402.902059 
L 333.415276 403.041056 
L 334.831342 402.938352 
L 335.539375 403.223391 
L 336.247408 403.755982 
L 336.955442 404.119197 
L 337.663475 404.29873 
L 338.371508 404.15558 
L 340.495608 404.742726 
L 341.911674 405.524956 
L 342.619707 406.186083 
L 344.035774 406.737461 
L 345.45184 406.974146 
L 347.57594 408.326503 
L 348.992006 407.878234 
L 349.70004 407.477511 
L 351.116106 406.071944 
L 351.824139 405.632837 
L 352.532172 405.328361 
L 353.240206 404.854198 
L 356.072339 404.234753 
L 356.780372 403.660729 
L 358.904471 403.276982 
L 360.320538 401.729619 
L 361.736604 400.253192 
L 363.860704 399.274238 
L 364.568737 399.335643 
L 366.692837 401.146213 
L 367.40087 401.355176 
L 368.108903 401.685738 
L 368.816936 401.451033 
L 369.52497 400.955413 
L 370.233003 400.160144 
L 371.649069 400.516928 
L 372.357103 400.988024 
L 373.773169 402.328821 
L 374.481202 402.747448 
L 375.189235 402.931173 
L 375.897269 402.942419 
L 376.605302 402.808227 
L 378.021368 403.409778 
L 378.729402 402.970024 
L 379.437435 403.136508 
L 380.145468 403.008471 
L 381.561534 403.275185 
L 382.269568 403.835343 
L 382.977601 404.181511 
L 383.685634 404.699447 
L 384.393667 405.462811 
L 385.1017 406.052606 
L 385.809734 406.230892 
L 386.517767 406.112366 
L 387.2258 405.880907 
L 388.641867 404.338186 
L 389.3499 402.681539 
L 390.057933 401.717672 
L 391.473999 398.391402 
L 392.182033 397.516015 
L 393.598099 395.192198 
L 395.014166 393.362353 
L 395.722199 392.714733 
L 396.430232 393.205657 
L 397.846298 395.254822 
L 398.554332 395.393973 
L 399.262365 396.012629 
L 400.678431 396.802897 
L 401.386464 396.903435 
L 402.094498 397.492029 
L 402.802531 397.466369 
L 403.510564 397.137925 
L 404.218597 396.441678 
L 404.926631 396.480033 
L 405.634664 398.15514 
L 406.342697 400.978112 
L 407.05073 402.885401 
L 407.758763 404.03192 
L 408.466797 406.711676 
L 409.17483 408.44786 
L 409.882863 409.605526 
L 410.590896 409.413703 
L 411.29893 411.975328 
L 411.29893 411.975328 
" clip-path="url(#p67eecf70af)" style="fill: none; stroke: #1f77b4; stroke-opacity: 0.3; stroke-width: 1.5; stroke-linecap: square"/>
   </g>
   <g id="line2d_64">
    <path d="M 57.28232 401.961906 
L 411.29893 401.961906 
L 411.29893 401.961906 
" clip-path="url(#p67eecf70af)" style="fill: none; stroke-dasharray: 5.55,2.4; stroke-dashoffset: 0; stroke: #ff0000; stroke-opacity: 0.3; stroke-width: 1.5"/>
   </g>
   <g id="patch_8">
    <path d="M 39.58149 686.64351 
L 39.58149 378.718125 
" style="fill: none; stroke: #000000; stroke-width: 0.8; stroke-linejoin: miter; stroke-linecap: square"/>
   </g>
   <g id="patch_9">
    <path d="M 428.99976 686.64351 
L 428.99976 378.718125 
" style="fill: none; stroke: #000000; stroke-width: 0.8; stroke-linejoin: miter; stroke-linecap: square"/>
   </g>
   <g id="patch_10">
    <path d="M 39.58149 686.64351 
L 428.99976 686.64351 
" style="fill: none; stroke: #000000; stroke-width: 0.8; stroke-linejoin: miter; stroke-linecap: square"/>
   </g>
   <g id="patch_11">
    <path d="M 39.58149 378.718125 
L 428.99976 378.718125 
" style="fill: none; stroke: #000000; stroke-width: 0.8; stroke-linejoin: miter; stroke-linecap: square"/>
   </g>
   <g id="text_39">
    <!-- Comparison -->
    <g transform="translate(198.366562 372.718125) scale(0.12 -0.12)">
     <defs>
      <path id="DejaVuSans-6f" d="M 1959 3097 
Q 1497 3097 1228 2736 
Q 959 2375 959 1747 
Q 959 1119 1226 758 
Q 1494 397 1959 397 
Q 2419 397 2687 759 
Q 2956 1122 2956 1747 
Q 2956 2369 2687 2733 
Q 2419 3097 1959 3097 
z
M 1959 3584 
Q 2709 3584 3137 3096 
Q 3566 2609 3566 1747 
Q 3566 888 3137 398 
Q 2709 -91 1959 -91 
Q 1206 -91 779 398 
Q 353 888 353 1747 
Q 353 2609 779 3096 
Q 1206 3584 1959 3584 
z
" transform="scale(0.015625)"/>
      <path id="DejaVuSans-70" d="M 1159 525 
L 1159 -1331 
L 581 -1331 
L 581 3500 
L 1159 3500 
L 1159 2969 
Q 1341 3281 1617 3432 
Q 1894 3584 2278 3584 
Q 2916 3584 3314 3078 
Q 3713 2572 3713 1747 
Q 3713 922 3314 415 
Q 2916 -91 2278 -91 
Q 1894 -91 1617 61 
Q 1341 213 1159 525 
z
M 3116 1747 
Q 3116 2381 2855 2742 
Q 2594 3103 2138 3103 
Q 1681 3103 1420 2742 
Q 1159 2381 1159 1747 
Q 1159 1113 1420 752 
Q 1681 391 2138 391 
Q 2594 391 2855 752 
Q 3116 1113 3116 1747 
z
" transform="scale(0.015625)"/>
     </defs>
     <use xlink:href="#DejaVuSans-43"/>
     <use xlink:href="#DejaVuSans-6f" transform="translate(69.824219 0)"/>
     <use xlink:href="#DejaVuSans-6d" transform="translate(131.005859 0)"/>
     <use xlink:href="#DejaVuSans-70" transform="translate(228.417969 0)"/>
     <use xlink:href="#DejaVuSans-61" transform="translate(291.894531 0)"/>
     <use xlink:href="#DejaVuSans-72" transform="translate(353.173828 0)"/>
     <use xlink:href="#DejaVuSans-69" transform="translate(394.287109 0)"/>
     <use xlink:href="#DejaVuSans-73" transform="translate(422.070312 0)"/>
     <use xlink:href="#DejaVuSans-6f" transform="translate(474.169922 0)"/>
     <use xlink:href="#DejaVuSans-6e" transform="translate(535.351562 0)"/>
    </g>
   </g>
   <g id="legend_2">
    <g id="patch_12">
     <path d="M 290.89976 681.64351 
L 421.99976 681.64351 
Q 423.99976 681.64351 423.99976 679.64351 
L 423.99976 650.165385 
Q 423.99976 648.165385 421.99976 648.165385 
L 290.89976 648.165385 
Q 288.89976 648.165385 288.89976 650.165385 
L 288.89976 679.64351 
Q 288.89976 681.64351 290.89976 681.64351 
z
" style="fill: #ffffff; opacity: 0.8; stroke: #cccccc; stroke-linejoin: miter"/>
    </g>
    <g id="line2d_65">
     <path d="M 292.89976 656.365385 
L 302.89976 656.365385 
L 312.89976 656.365385 
" style="fill: none; stroke: #1f77b4; stroke-opacity: 0.3; stroke-width: 1.5; stroke-linecap: square"/>
    </g>
    <g id="text_40">
     <!-- $|&lt;x_{cyl}&gt; - &lt;x_{circ}&gt;|$ -->
     <g transform="translate(320.89976 659.865385) scale(0.1 -0.1)">
      <defs>
       <path id="DejaVuSans-7c" d="M 1344 4891 
L 1344 -1509 
L 813 -1509 
L 813 4891 
L 1344 4891 
z
" transform="scale(0.015625)"/>
       <path id="DejaVuSans-3c" d="M 4684 3150 
L 1459 2003 
L 4684 863 
L 4684 294 
L 678 1747 
L 678 2266 
L 4684 3719 
L 4684 3150 
z
" transform="scale(0.015625)"/>
       <path id="DejaVuSans-Oblique-78" d="M 3841 3500 
L 2234 1784 
L 3219 0 
L 2559 0 
L 1819 1388 
L 531 0 
L -166 0 
L 1556 1844 
L 641 3500 
L 1300 3500 
L 1972 2234 
L 3144 3500 
L 3841 3500 
z
" transform="scale(0.015625)"/>
       <path id="DejaVuSans-Oblique-63" d="M 3431 3366 
L 3316 2797 
Q 3109 2947 2876 3022 
Q 2644 3097 2394 3097 
Q 2119 3097 1870 3000 
Q 1622 2903 1453 2725 
Q 1184 2453 1037 2087 
Q 891 1722 891 1331 
Q 891 859 1127 628 
Q 1363 397 1844 397 
Q 2081 397 2348 469 
Q 2616 541 2906 684 
L 2797 116 
Q 2547 13 2283 -39 
Q 2019 -91 1741 -91 
Q 1044 -91 669 257 
Q 294 606 294 1253 
Q 294 1797 489 2255 
Q 684 2713 1069 3078 
Q 1331 3328 1684 3456 
Q 2038 3584 2456 3584 
Q 2700 3584 2940 3529 
Q 3181 3475 3431 3366 
z
" transform="scale(0.015625)"/>
       <path id="DejaVuSans-Oblique-79" d="M 1588 -325 
Q 1188 -997 936 -1164 
Q 684 -1331 294 -1331 
L -159 -1331 
L -63 -850 
L 269 -850 
Q 509 -850 678 -719 
Q 847 -588 1056 -206 
L 1234 128 
L 459 3500 
L 1069 3500 
L 1650 819 
L 3256 3500 
L 3859 3500 
L 1588 -325 
z
" transform="scale(0.015625)"/>
       <path id="DejaVuSans-Oblique-6c" d="M 1172 4863 
L 1747 4863 
L 800 0 
L 225 0 
L 1172 4863 
z
" transform="scale(0.015625)"/>
       <path id="DejaVuSans-3e" d="M 678 3150 
L 678 3719 
L 4684 2266 
L 4684 1747 
L 678 294 
L 678 863 
L 3897 2003 
L 678 3150 
z
" transform="scale(0.015625)"/>
       <path id="DejaVuSans-Oblique-69" d="M 1172 4863 
L 1747 4863 
L 1606 4134 
L 1031 4134 
L 1172 4863 
z
M 909 3500 
L 1484 3500 
L 800 0 
L 225 0 
L 909 3500 
z
" transform="scale(0.015625)"/>
       <path id="DejaVuSans-Oblique-72" d="M 2853 2969 
Q 2766 3016 2653 3041 
Q 2541 3066 2413 3066 
Q 1953 3066 1609 2717 
Q 1266 2369 1153 1784 
L 800 0 
L 225 0 
L 909 3500 
L 1484 3500 
L 1375 2956 
Q 1603 3259 1920 3421 
Q 2238 3584 2597 3584 
Q 2691 3584 2781 3573 
Q 2872 3563 2963 3538 
L 2853 2969 
z
" transform="scale(0.015625)"/>
      </defs>
      <use xlink:href="#DejaVuSans-7c" transform="translate(0 0.578125)"/>
      <use xlink:href="#DejaVuSans-3c" transform="translate(53.173828 0.578125)"/>
      <use xlink:href="#DejaVuSans-Oblique-78" transform="translate(156.445312 0.578125)"/>
      <use xlink:href="#DejaVuSans-Oblique-63" transform="translate(215.625 -15.828125) scale(0.7)"/>
      <use xlink:href="#DejaVuSans-Oblique-79" transform="translate(254.111328 -15.828125) scale(0.7)"/>
      <use xlink:href="#DejaVuSans-Oblique-6c" transform="translate(295.537109 -15.828125) scale(0.7)"/>
      <use xlink:href="#DejaVuSans-3e" transform="translate(337.202148 0.578125)"/>
      <use xlink:href="#DejaVuSans-2212" transform="translate(440.473633 0.578125)"/>
      <use xlink:href="#DejaVuSans-3c" transform="translate(543.745117 0.578125)"/>
      <use xlink:href="#DejaVuSans-Oblique-78" transform="translate(647.016602 0.578125)"/>
      <use xlink:href="#DejaVuSans-Oblique-63" transform="translate(706.196289 -15.828125) scale(0.7)"/>
      <use xlink:href="#DejaVuSans-Oblique-69" transform="translate(744.682617 -15.828125) scale(0.7)"/>
      <use xlink:href="#DejaVuSans-Oblique-72" transform="translate(764.130859 -15.828125) scale(0.7)"/>
      <use xlink:href="#DejaVuSans-Oblique-63" transform="translate(792.910156 -15.828125) scale(0.7)"/>
      <use xlink:href="#DejaVuSans-3e" transform="translate(853.613281 0.578125)"/>
      <use xlink:href="#DejaVuSans-7c" transform="translate(956.884766 0.578125)"/>
     </g>
    </g>
    <g id="line2d_66">
     <path d="M 292.89976 672.063823 
L 302.89976 672.063823 
L 312.89976 672.063823 
" style="fill: none; stroke-dasharray: 5.55,2.4; stroke-dashoffset: 0; stroke: #ff0000; stroke-opacity: 0.3; stroke-width: 1.5"/>
    </g>
    <g id="text_41">
     <!-- Axial MSD Limit -->
     <g transform="translate(320.89976 675.563823) scale(0.1 -0.1)">
      <defs>
       <path id="DejaVuSans-4c" d="M 628 4666 
L 1259 4666 
L 1259 531 
L 3531 531 
L 3531 0 
L 628 0 
L 628 4666 
z
" transform="scale(0.015625)"/>
      </defs>
      <use xlink:href="#DejaVuSans-41"/>
      <use xlink:href="#DejaVuSans-78" transform="translate(68.408203 0)"/>
      <use xlink:href="#DejaVuSans-69" transform="translate(127.587891 0)"/>
      <use xlink:href="#DejaVuSans-61" transform="translate(155.371094 0)"/>
      <use xlink:href="#DejaVuSans-6c" transform="translate(216.650391 0)"/>
      <use xlink:href="#DejaVuSans-20" transform="translate(244.433594 0)"/>
      <use xlink:href="#DejaVuSans-4d" transform="translate(276.220703 0)"/>
      <use xlink:href="#DejaVuSans-53" transform="translate(362.5 0)"/>
      <use xlink:href="#DejaVuSans-44" transform="translate(425.976562 0)"/>
      <use xlink:href="#DejaVuSans-20" transform="translate(502.978516 0)"/>
      <use xlink:href="#DejaVuSans-4c" transform="translate(534.765625 0)"/>
      <use xlink:href="#DejaVuSans-69" transform="translate(590.478516 0)"/>
      <use xlink:href="#DejaVuSans-6d" transform="translate(618.261719 0)"/>
      <use xlink:href="#DejaVuSans-69" transform="translate(715.673828 0)"/>
      <use xlink:href="#DejaVuSans-74" transform="translate(743.457031 0)"/>
     </g>
    </g>
   </g>
  </g>
 </g>
 <defs>
  <clipPath id="p5c4c0c9d33">
   <rect x="39.58149" y="18.118365" width="389.41827" height="307.925385"/>
  </clipPath>
  <clipPath id="p67eecf70af">
   <rect x="39.58149" y="378.718125" width="389.41827" height="307.925385"/>
  </clipPath>
 </defs>
</svg>
