<?xml version="1.0" encoding="utf-8" standalone="no"?>
<!DOCTYPE svg PUBLIC "-//W3C//DTD SVG 1.1//EN"
  "http://www.w3.org/Graphics/SVG/1.1/DTD/svg11.dtd">
<svg xmlns:xlink="http://www.w3.org/1999/xlink" width="432pt" height="720pt" viewBox="0 0 432 720" xmlns="http://www.w3.org/2000/svg" version="1.1">
 <metadata>
  <rdf:RDF xmlns:dc="http://purl.org/dc/elements/1.1/" xmlns:cc="http://creativecommons.org/ns#" xmlns:rdf="http://www.w3.org/1999/02/22-rdf-syntax-ns#">
   <cc:Work>
    <dc:type rdf:resource="http://purl.org/dc/dcmitype/StillImage"/>
    <dc:date>2025-06-02T09:58:15.516654</dc:date>
    <dc:format>image/svg+xml</dc:format>
    <dc:creator>
     <cc:Agent>
      <dc:title>Matplotlib v3.9.2, https://matplotlib.org/</dc:title>
     </cc:Agent>
    </dc:creator>
   </cc:Work>
  </rdf:RDF>
 </metadata>
 <defs>
  <style type="text/css">*{stroke-linejoin: round; stroke-linecap: butt}</style>
 </defs>
 <g id="figure_1">
  <g id="patch_1">
   <path d="M 0 720 
L 432 720 
L 432 0 
L 0 0 
z
" style="fill: #ffffff"/>
  </g>
  <g id="axes_1">
   <g id="patch_2">
    <path d="M 39.58149 326.04375 
L 428.99976 326.04375 
L 428.99976 18.118365 
L 39.58149 18.118365 
z
" style="fill: #ffffff"/>
   </g>
   <g id="matplotlib.axis_1">
    <g id="xtick_1">
     <g id="line2d_1">
      <path d="M 57.28232 326.04375 
L 57.28232 18.118365 
" clip-path="url(#p3ec45089c5)" style="fill: none; stroke-dasharray: 0.5,0.825; stroke-dashoffset: 0; stroke: #b0b0b0; stroke-width: 0.5"/>
     </g>
     <g id="line2d_2">
      <defs>
       <path id="md031384cca" d="M 0 0 
L 0 3.5 
" style="stroke: #000000; stroke-width: 0.8"/>
      </defs>
      <g>
       <use xlink:href="#md031384cca" x="57.28232" y="326.04375" style="stroke: #000000; stroke-width: 0.8"/>
      </g>
     </g>
     <g id="text_1">
      <!-- 0 -->
      <g transform="translate(54.10107 340.642188) scale(0.1 -0.1)">
       <defs>
        <path id="DejaVuSans-30" d="M 2034 4250 
Q 1547 4250 1301 3770 
Q 1056 3291 1056 2328 
Q 1056 1369 1301 889 
Q 1547 409 2034 409 
Q 2525 409 2770 889 
Q 3016 1369 3016 2328 
Q 3016 3291 2770 3770 
Q 2525 4250 2034 4250 
z
M 2034 4750 
Q 2819 4750 3233 4129 
Q 3647 3509 3647 2328 
Q 3647 1150 3233 529 
Q 2819 -91 2034 -91 
Q 1250 -91 836 529 
Q 422 1150 422 2328 
Q 422 3509 836 4129 
Q 1250 4750 2034 4750 
z
" transform="scale(0.015625)"/>
       </defs>
       <use xlink:href="#DejaVuSans-30"/>
      </g>
     </g>
    </g>
    <g id="xtick_2">
     <g id="line2d_3">
      <path d="M 128.085642 326.04375 
L 128.085642 18.118365 
" clip-path="url(#p3ec45089c5)" style="fill: none; stroke-dasharray: 0.5,0.825; stroke-dashoffset: 0; stroke: #b0b0b0; stroke-width: 0.5"/>
     </g>
     <g id="line2d_4">
      <g>
       <use xlink:href="#md031384cca" x="128.085642" y="326.04375" style="stroke: #000000; stroke-width: 0.8"/>
      </g>
     </g>
     <g id="text_2">
      <!-- 1 -->
      <g transform="translate(124.904392 340.642188) scale(0.1 -0.1)">
       <defs>
        <path id="DejaVuSans-31" d="M 794 531 
L 1825 531 
L 1825 4091 
L 703 3866 
L 703 4441 
L 1819 4666 
L 2450 4666 
L 2450 531 
L 3481 531 
L 3481 0 
L 794 0 
L 794 531 
z
" transform="scale(0.015625)"/>
       </defs>
       <use xlink:href="#DejaVuSans-31"/>
      </g>
     </g>
    </g>
    <g id="xtick_3">
     <g id="line2d_5">
      <path d="M 198.888964 326.04375 
L 198.888964 18.118365 
" clip-path="url(#p3ec45089c5)" style="fill: none; stroke-dasharray: 0.5,0.825; stroke-dashoffset: 0; stroke: #b0b0b0; stroke-width: 0.5"/>
     </g>
     <g id="line2d_6">
      <g>
       <use xlink:href="#md031384cca" x="198.888964" y="326.04375" style="stroke: #000000; stroke-width: 0.8"/>
      </g>
     </g>
     <g id="text_3">
      <!-- 2 -->
      <g transform="translate(195.707714 340.642188) scale(0.1 -0.1)">
       <defs>
        <path id="DejaVuSans-32" d="M 1228 531 
L 3431 531 
L 3431 0 
L 469 0 
L 469 531 
Q 828 903 1448 1529 
Q 2069 2156 2228 2338 
Q 2531 2678 2651 2914 
Q 2772 3150 2772 3378 
Q 2772 3750 2511 3984 
Q 2250 4219 1831 4219 
Q 1534 4219 1204 4116 
Q 875 4013 500 3803 
L 500 4441 
Q 881 4594 1212 4672 
Q 1544 4750 1819 4750 
Q 2544 4750 2975 4387 
Q 3406 4025 3406 3419 
Q 3406 3131 3298 2873 
Q 3191 2616 2906 2266 
Q 2828 2175 2409 1742 
Q 1991 1309 1228 531 
z
" transform="scale(0.015625)"/>
       </defs>
       <use xlink:href="#DejaVuSans-32"/>
      </g>
     </g>
    </g>
    <g id="xtick_4">
     <g id="line2d_7">
      <path d="M 269.692286 326.04375 
L 269.692286 18.118365 
" clip-path="url(#p3ec45089c5)" style="fill: none; stroke-dasharray: 0.5,0.825; stroke-dashoffset: 0; stroke: #b0b0b0; stroke-width: 0.5"/>
     </g>
     <g id="line2d_8">
      <g>
       <use xlink:href="#md031384cca" x="269.692286" y="326.04375" style="stroke: #000000; stroke-width: 0.8"/>
      </g>
     </g>
     <g id="text_4">
      <!-- 3 -->
      <g transform="translate(266.511036 340.642188) scale(0.1 -0.1)">
       <defs>
        <path id="DejaVuSans-33" d="M 2597 2516 
Q 3050 2419 3304 2112 
Q 3559 1806 3559 1356 
Q 3559 666 3084 287 
Q 2609 -91 1734 -91 
Q 1441 -91 1130 -33 
Q 819 25 488 141 
L 488 750 
Q 750 597 1062 519 
Q 1375 441 1716 441 
Q 2309 441 2620 675 
Q 2931 909 2931 1356 
Q 2931 1769 2642 2001 
Q 2353 2234 1838 2234 
L 1294 2234 
L 1294 2753 
L 1863 2753 
Q 2328 2753 2575 2939 
Q 2822 3125 2822 3475 
Q 2822 3834 2567 4026 
Q 2313 4219 1838 4219 
Q 1578 4219 1281 4162 
Q 984 4106 628 3988 
L 628 4550 
Q 988 4650 1302 4700 
Q 1616 4750 1894 4750 
Q 2613 4750 3031 4423 
Q 3450 4097 3450 3541 
Q 3450 3153 3228 2886 
Q 3006 2619 2597 2516 
z
" transform="scale(0.015625)"/>
       </defs>
       <use xlink:href="#DejaVuSans-33"/>
      </g>
     </g>
    </g>
    <g id="xtick_5">
     <g id="line2d_9">
      <path d="M 340.495608 326.04375 
L 340.495608 18.118365 
" clip-path="url(#p3ec45089c5)" style="fill: none; stroke-dasharray: 0.5,0.825; stroke-dashoffset: 0; stroke: #b0b0b0; stroke-width: 0.5"/>
     </g>
     <g id="line2d_10">
      <g>
       <use xlink:href="#md031384cca" x="340.495608" y="326.04375" style="stroke: #000000; stroke-width: 0.8"/>
      </g>
     </g>
     <g id="text_5">
      <!-- 4 -->
      <g transform="translate(337.314358 340.642188) scale(0.1 -0.1)">
       <defs>
        <path id="DejaVuSans-34" d="M 2419 4116 
L 825 1625 
L 2419 1625 
L 2419 4116 
z
M 2253 4666 
L 3047 4666 
L 3047 1625 
L 3713 1625 
L 3713 1100 
L 3047 1100 
L 3047 0 
L 2419 0 
L 2419 1100 
L 313 1100 
L 313 1709 
L 2253 4666 
z
" transform="scale(0.015625)"/>
       </defs>
       <use xlink:href="#DejaVuSans-34"/>
      </g>
     </g>
    </g>
    <g id="xtick_6">
     <g id="line2d_11">
      <path d="M 411.29893 326.04375 
L 411.29893 18.118365 
" clip-path="url(#p3ec45089c5)" style="fill: none; stroke-dasharray: 0.5,0.825; stroke-dashoffset: 0; stroke: #b0b0b0; stroke-width: 0.5"/>
     </g>
     <g id="line2d_12">
      <g>
       <use xlink:href="#md031384cca" x="411.29893" y="326.04375" style="stroke: #000000; stroke-width: 0.8"/>
      </g>
     </g>
     <g id="text_6">
      <!-- 5 -->
      <g transform="translate(408.11768 340.642188) scale(0.1 -0.1)">
       <defs>
        <path id="DejaVuSans-35" d="M 691 4666 
L 3169 4666 
L 3169 4134 
L 1269 4134 
L 1269 2991 
Q 1406 3038 1543 3061 
Q 1681 3084 1819 3084 
Q 2600 3084 3056 2656 
Q 3513 2228 3513 1497 
Q 3513 744 3044 326 
Q 2575 -91 1722 -91 
Q 1428 -91 1123 -41 
Q 819 9 494 109 
L 494 744 
Q 775 591 1075 516 
Q 1375 441 1709 441 
Q 2250 441 2565 725 
Q 2881 1009 2881 1497 
Q 2881 1984 2565 2268 
Q 2250 2553 1709 2553 
Q 1456 2553 1204 2497 
Q 953 2441 691 2322 
L 691 4666 
z
" transform="scale(0.015625)"/>
       </defs>
       <use xlink:href="#DejaVuSans-35"/>
      </g>
     </g>
    </g>
    <g id="text_7">
     <!-- Time -->
     <g transform="translate(222.057031 354.320313) scale(0.1 -0.1)">
      <defs>
       <path id="DejaVuSans-54" d="M -19 4666 
L 3928 4666 
L 3928 4134 
L 2272 4134 
L 2272 0 
L 1638 0 
L 1638 4134 
L -19 4134 
L -19 4666 
z
" transform="scale(0.015625)"/>
       <path id="DejaVuSans-69" d="M 603 3500 
L 1178 3500 
L 1178 0 
L 603 0 
L 603 3500 
z
M 603 4863 
L 1178 4863 
L 1178 4134 
L 603 4134 
L 603 4863 
z
" transform="scale(0.015625)"/>
       <path id="DejaVuSans-6d" d="M 3328 2828 
Q 3544 3216 3844 3400 
Q 4144 3584 4550 3584 
Q 5097 3584 5394 3201 
Q 5691 2819 5691 2113 
L 5691 0 
L 5113 0 
L 5113 2094 
Q 5113 2597 4934 2840 
Q 4756 3084 4391 3084 
Q 3944 3084 3684 2787 
Q 3425 2491 3425 1978 
L 3425 0 
L 2847 0 
L 2847 2094 
Q 2847 2600 2669 2842 
Q 2491 3084 2119 3084 
Q 1678 3084 1418 2786 
Q 1159 2488 1159 1978 
L 1159 0 
L 581 0 
L 581 3500 
L 1159 3500 
L 1159 2956 
Q 1356 3278 1631 3431 
Q 1906 3584 2284 3584 
Q 2666 3584 2933 3390 
Q 3200 3197 3328 2828 
z
" transform="scale(0.015625)"/>
       <path id="DejaVuSans-65" d="M 3597 1894 
L 3597 1613 
L 953 1613 
Q 991 1019 1311 708 
Q 1631 397 2203 397 
Q 2534 397 2845 478 
Q 3156 559 3463 722 
L 3463 178 
Q 3153 47 2828 -22 
Q 2503 -91 2169 -91 
Q 1331 -91 842 396 
Q 353 884 353 1716 
Q 353 2575 817 3079 
Q 1281 3584 2069 3584 
Q 2775 3584 3186 3129 
Q 3597 2675 3597 1894 
z
M 3022 2063 
Q 3016 2534 2758 2815 
Q 2500 3097 2075 3097 
Q 1594 3097 1305 2825 
Q 1016 2553 972 2059 
L 3022 2063 
z
" transform="scale(0.015625)"/>
      </defs>
      <use xlink:href="#DejaVuSans-54"/>
      <use xlink:href="#DejaVuSans-69" x="57.958984"/>
      <use xlink:href="#DejaVuSans-6d" x="85.742188"/>
      <use xlink:href="#DejaVuSans-65" x="183.154297"/>
     </g>
    </g>
   </g>
   <g id="matplotlib.axis_2">
    <g id="ytick_1">
     <g id="line2d_13">
      <path d="M 39.58149 312.047142 
L 428.99976 312.047142 
" clip-path="url(#p3ec45089c5)" style="fill: none; stroke-dasharray: 0.5,0.825; stroke-dashoffset: 0; stroke: #b0b0b0; stroke-width: 0.5"/>
     </g>
     <g id="line2d_14">
      <defs>
       <path id="m56559a7158" d="M 0 0 
L -3.5 0 
" style="stroke: #000000; stroke-width: 0.8"/>
      </defs>
      <g>
       <use xlink:href="#m56559a7158" x="39.58149" y="312.047142" style="stroke: #000000; stroke-width: 0.8"/>
      </g>
     </g>
     <g id="text_8">
      <!-- 0.0 -->
      <g transform="translate(16.678365 315.84636) scale(0.1 -0.1)">
       <defs>
        <path id="DejaVuSans-2e" d="M 684 794 
L 1344 794 
L 1344 0 
L 684 0 
L 684 794 
z
" transform="scale(0.015625)"/>
       </defs>
       <use xlink:href="#DejaVuSans-30"/>
       <use xlink:href="#DejaVuSans-2e" x="63.623047"/>
       <use xlink:href="#DejaVuSans-30" x="95.410156"/>
      </g>
     </g>
    </g>
    <g id="ytick_2">
     <g id="line2d_15">
      <path d="M 39.58149 259.140785 
L 428.99976 259.140785 
" clip-path="url(#p3ec45089c5)" style="fill: none; stroke-dasharray: 0.5,0.825; stroke-dashoffset: 0; stroke: #b0b0b0; stroke-width: 0.5"/>
     </g>
     <g id="line2d_16">
      <g>
       <use xlink:href="#m56559a7158" x="39.58149" y="259.140785" style="stroke: #000000; stroke-width: 0.8"/>
      </g>
     </g>
     <g id="text_9">
      <!-- 0.2 -->
      <g transform="translate(16.678365 262.940004) scale(0.1 -0.1)">
       <use xlink:href="#DejaVuSans-30"/>
       <use xlink:href="#DejaVuSans-2e" x="63.623047"/>
       <use xlink:href="#DejaVuSans-32" x="95.410156"/>
      </g>
     </g>
    </g>
    <g id="ytick_3">
     <g id="line2d_17">
      <path d="M 39.58149 206.234429 
L 428.99976 206.234429 
" clip-path="url(#p3ec45089c5)" style="fill: none; stroke-dasharray: 0.5,0.825; stroke-dashoffset: 0; stroke: #b0b0b0; stroke-width: 0.5"/>
     </g>
     <g id="line2d_18">
      <g>
       <use xlink:href="#m56559a7158" x="39.58149" y="206.234429" style="stroke: #000000; stroke-width: 0.8"/>
      </g>
     </g>
     <g id="text_10">
      <!-- 0.4 -->
      <g transform="translate(16.678365 210.033648) scale(0.1 -0.1)">
       <use xlink:href="#DejaVuSans-30"/>
       <use xlink:href="#DejaVuSans-2e" x="63.623047"/>
       <use xlink:href="#DejaVuSans-34" x="95.410156"/>
      </g>
     </g>
    </g>
    <g id="ytick_4">
     <g id="line2d_19">
      <path d="M 39.58149 153.328073 
L 428.99976 153.328073 
" clip-path="url(#p3ec45089c5)" style="fill: none; stroke-dasharray: 0.5,0.825; stroke-dashoffset: 0; stroke: #b0b0b0; stroke-width: 0.5"/>
     </g>
     <g id="line2d_20">
      <g>
       <use xlink:href="#m56559a7158" x="39.58149" y="153.328073" style="stroke: #000000; stroke-width: 0.8"/>
      </g>
     </g>
     <g id="text_11">
      <!-- 0.6 -->
      <g transform="translate(16.678365 157.127292) scale(0.1 -0.1)">
       <defs>
        <path id="DejaVuSans-36" d="M 2113 2584 
Q 1688 2584 1439 2293 
Q 1191 2003 1191 1497 
Q 1191 994 1439 701 
Q 1688 409 2113 409 
Q 2538 409 2786 701 
Q 3034 994 3034 1497 
Q 3034 2003 2786 2293 
Q 2538 2584 2113 2584 
z
M 3366 4563 
L 3366 3988 
Q 3128 4100 2886 4159 
Q 2644 4219 2406 4219 
Q 1781 4219 1451 3797 
Q 1122 3375 1075 2522 
Q 1259 2794 1537 2939 
Q 1816 3084 2150 3084 
Q 2853 3084 3261 2657 
Q 3669 2231 3669 1497 
Q 3669 778 3244 343 
Q 2819 -91 2113 -91 
Q 1303 -91 875 529 
Q 447 1150 447 2328 
Q 447 3434 972 4092 
Q 1497 4750 2381 4750 
Q 2619 4750 2861 4703 
Q 3103 4656 3366 4563 
z
" transform="scale(0.015625)"/>
       </defs>
       <use xlink:href="#DejaVuSans-30"/>
       <use xlink:href="#DejaVuSans-2e" x="63.623047"/>
       <use xlink:href="#DejaVuSans-36" x="95.410156"/>
      </g>
     </g>
    </g>
    <g id="ytick_5">
     <g id="line2d_21">
      <path d="M 39.58149 100.421717 
L 428.99976 100.421717 
" clip-path="url(#p3ec45089c5)" style="fill: none; stroke-dasharray: 0.5,0.825; stroke-dashoffset: 0; stroke: #b0b0b0; stroke-width: 0.5"/>
     </g>
     <g id="line2d_22">
      <g>
       <use xlink:href="#m56559a7158" x="39.58149" y="100.421717" style="stroke: #000000; stroke-width: 0.8"/>
      </g>
     </g>
     <g id="text_12">
      <!-- 0.8 -->
      <g transform="translate(16.678365 104.220935) scale(0.1 -0.1)">
       <defs>
        <path id="DejaVuSans-38" d="M 2034 2216 
Q 1584 2216 1326 1975 
Q 1069 1734 1069 1313 
Q 1069 891 1326 650 
Q 1584 409 2034 409 
Q 2484 409 2743 651 
Q 3003 894 3003 1313 
Q 3003 1734 2745 1975 
Q 2488 2216 2034 2216 
z
M 1403 2484 
Q 997 2584 770 2862 
Q 544 3141 544 3541 
Q 544 4100 942 4425 
Q 1341 4750 2034 4750 
Q 2731 4750 3128 4425 
Q 3525 4100 3525 3541 
Q 3525 3141 3298 2862 
Q 3072 2584 2669 2484 
Q 3125 2378 3379 2068 
Q 3634 1759 3634 1313 
Q 3634 634 3220 271 
Q 2806 -91 2034 -91 
Q 1263 -91 848 271 
Q 434 634 434 1313 
Q 434 1759 690 2068 
Q 947 2378 1403 2484 
z
M 1172 3481 
Q 1172 3119 1398 2916 
Q 1625 2713 2034 2713 
Q 2441 2713 2670 2916 
Q 2900 3119 2900 3481 
Q 2900 3844 2670 4047 
Q 2441 4250 2034 4250 
Q 1625 4250 1398 4047 
Q 1172 3844 1172 3481 
z
" transform="scale(0.015625)"/>
       </defs>
       <use xlink:href="#DejaVuSans-30"/>
       <use xlink:href="#DejaVuSans-2e" x="63.623047"/>
       <use xlink:href="#DejaVuSans-38" x="95.410156"/>
      </g>
     </g>
    </g>
    <g id="ytick_6">
     <g id="line2d_23">
      <path d="M 39.58149 47.51536 
L 428.99976 47.51536 
" clip-path="url(#p3ec45089c5)" style="fill: none; stroke-dasharray: 0.5,0.825; stroke-dashoffset: 0; stroke: #b0b0b0; stroke-width: 0.5"/>
     </g>
     <g id="line2d_24">
      <g>
       <use xlink:href="#m56559a7158" x="39.58149" y="47.51536" style="stroke: #000000; stroke-width: 0.8"/>
      </g>
     </g>
     <g id="text_13">
      <!-- 1.0 -->
      <g transform="translate(16.678365 51.314579) scale(0.1 -0.1)">
       <use xlink:href="#DejaVuSans-31"/>
       <use xlink:href="#DejaVuSans-2e" x="63.623047"/>
       <use xlink:href="#DejaVuSans-30" x="95.410156"/>
      </g>
     </g>
    </g>
    <g id="text_14">
     <!-- MSD -->
     <g transform="translate(10.598677 183.419339) rotate(-90) scale(0.1 -0.1)">
      <defs>
       <path id="DejaVuSans-4d" d="M 628 4666 
L 1569 4666 
L 2759 1491 
L 3956 4666 
L 4897 4666 
L 4897 0 
L 4281 0 
L 4281 4097 
L 3078 897 
L 2444 897 
L 1241 4097 
L 1241 0 
L 628 0 
L 628 4666 
z
" transform="scale(0.015625)"/>
       <path id="DejaVuSans-53" d="M 3425 4513 
L 3425 3897 
Q 3066 4069 2747 4153 
Q 2428 4238 2131 4238 
Q 1616 4238 1336 4038 
Q 1056 3838 1056 3469 
Q 1056 3159 1242 3001 
Q 1428 2844 1947 2747 
L 2328 2669 
Q 3034 2534 3370 2195 
Q 3706 1856 3706 1288 
Q 3706 609 3251 259 
Q 2797 -91 1919 -91 
Q 1588 -91 1214 -16 
Q 841 59 441 206 
L 441 856 
Q 825 641 1194 531 
Q 1563 422 1919 422 
Q 2459 422 2753 634 
Q 3047 847 3047 1241 
Q 3047 1584 2836 1778 
Q 2625 1972 2144 2069 
L 1759 2144 
Q 1053 2284 737 2584 
Q 422 2884 422 3419 
Q 422 4038 858 4394 
Q 1294 4750 2059 4750 
Q 2388 4750 2728 4690 
Q 3069 4631 3425 4513 
z
" transform="scale(0.015625)"/>
       <path id="DejaVuSans-44" d="M 1259 4147 
L 1259 519 
L 2022 519 
Q 2988 519 3436 956 
Q 3884 1394 3884 2338 
Q 3884 3275 3436 3711 
Q 2988 4147 2022 4147 
L 1259 4147 
z
M 628 4666 
L 1925 4666 
Q 3281 4666 3915 4102 
Q 4550 3538 4550 2338 
Q 4550 1131 3912 565 
Q 3275 0 1925 0 
L 628 0 
L 628 4666 
z
" transform="scale(0.015625)"/>
      </defs>
      <use xlink:href="#DejaVuSans-4d"/>
      <use xlink:href="#DejaVuSans-53" x="86.279297"/>
      <use xlink:href="#DejaVuSans-44" x="149.755859"/>
     </g>
    </g>
    <g id="text_15">
     <!-- 1e−11 -->
     <g transform="translate(39.58149 15.118365) scale(0.1 -0.1)">
      <defs>
       <path id="DejaVuSans-2212" d="M 678 2272 
L 4684 2272 
L 4684 1741 
L 678 1741 
L 678 2272 
z
" transform="scale(0.015625)"/>
      </defs>
      <use xlink:href="#DejaVuSans-31"/>
      <use xlink:href="#DejaVuSans-65" x="63.623047"/>
      <use xlink:href="#DejaVuSans-2212" x="125.146484"/>
      <use xlink:href="#DejaVuSans-31" x="208.935547"/>
      <use xlink:href="#DejaVuSans-31" x="272.558594"/>
     </g>
    </g>
   </g>
   <g id="line2d_25">
    <path d="M 57.28232 312.047142 
L 58.698387 285.243157 
L 60.114453 262.572926 
L 61.53052 242.719254 
L 62.946586 225.083029 
L 64.362653 209.289518 
L 66.486752 188.562549 
L 68.610852 170.616213 
L 70.734952 155.037606 
L 72.859051 141.590109 
L 74.983151 129.640148 
L 77.107251 119.203679 
L 79.23135 110.102386 
L 81.35545 102.079087 
L 83.47955 95.005767 
L 85.603649 88.797337 
L 87.727749 83.349265 
L 89.851848 78.349388 
L 91.975948 73.879673 
L 94.100048 69.777855 
L 96.224147 66.085567 
L 98.348247 62.799335 
L 100.472347 59.959804 
L 103.30448 56.765906 
L 105.428579 54.616558 
L 107.552679 52.729984 
L 109.676779 51.364634 
L 111.092845 50.579064 
L 117.465144 47.592981 
L 123.837443 45.0346 
L 128.085642 43.663747 
L 130.209742 42.997563 
L 133.749908 42.097175 
L 138.706141 41.442534 
L 145.07844 40.480783 
L 149.326639 40.203239 
L 151.450738 40.020055 
L 157.823037 39.733643 
L 161.363204 39.340138 
L 163.487303 39.085879 
L 169.151569 39.152089 
L 173.399768 39.585418 
L 179.064034 39.536425 
L 181.188134 39.524372 
L 184.7283 39.52167 
L 186.852399 39.417059 
L 188.268466 39.340601 
L 191.100599 39.031277 
L 193.224698 38.509104 
L 195.348798 38.050584 
L 197.472898 37.760978 
L 207.385363 36.706152 
L 210.217496 36.199476 
L 217.297828 35.251526 
L 228.626359 34.585598 
L 239.954891 34.86501 
L 243.495057 34.820086 
L 249.867356 34.800374 
L 254.823588 35.241606 
L 259.071788 35.405097 
L 261.195887 35.433549 
L 264.736053 35.317628 
L 266.860153 35.076699 
L 270.400319 34.611851 
L 279.604751 33.992707 
L 283.144917 33.974324 
L 284.560983 33.768048 
L 285.97705 33.794733 
L 288.10115 33.64975 
L 290.225249 33.652861 
L 295.181482 33.257493 
L 297.305581 33.32773 
L 300.137714 33.754313 
L 302.261814 33.796648 
L 304.385914 33.738627 
L 309.342146 33.003742 
L 311.466246 32.59985 
L 312.882312 32.553524 
L 316.422478 32.648838 
L 317.130512 32.606229 
L 319.254611 32.762127 
L 321.378711 32.831459 
L 323.50281 32.81447 
L 324.918877 32.896932 
L 326.334943 33.018726 
L 328.459043 33.462825 
L 330.583143 33.991661 
L 336.247408 34.846319 
L 339.787575 35.529336 
L 341.911674 35.491396 
L 343.327741 35.747064 
L 344.743807 35.754656 
L 347.57594 36.283043 
L 348.283973 36.344569 
L 351.824139 37.426754 
L 353.240206 38.009855 
L 355.364305 38.386612 
L 364.568737 38.850679 
L 365.984804 39.227216 
L 368.108903 40.028582 
L 370.233003 40.516521 
L 371.649069 40.621354 
L 373.773169 40.416771 
L 375.189235 40.149199 
L 376.605302 40.085886 
L 378.021368 39.838433 
L 381.561534 39.218215 
L 383.685634 39.648307 
L 385.1017 40.334799 
L 385.809734 40.749714 
L 387.933833 42.346229 
L 389.3499 43.360663 
L 391.473999 44.126032 
L 392.182033 44.289939 
L 395.722199 45.795072 
L 399.262365 48.449732 
L 399.970398 48.668329 
L 402.094498 48.069344 
L 402.802531 47.95284 
L 404.926631 46.551479 
L 405.634664 46.405395 
L 406.342697 46.664473 
L 407.05073 46.679791 
L 407.758763 46.318839 
L 408.466797 44.723509 
L 409.17483 44.289395 
L 409.882863 43.229648 
L 410.590896 43.161538 
L 411.29893 42.639548 
L 411.29893 42.639548 
" clip-path="url(#p3ec45089c5)" style="fill: none; stroke: #1f77b4; stroke-opacity: 0.3; stroke-width: 1.5; stroke-linecap: square"/>
   </g>
   <g id="line2d_26">
    <path d="M 57.28232 312.047142 
L 58.698387 293.479449 
L 60.822487 269.457573 
L 62.946586 248.564273 
L 65.070686 230.078126 
L 67.194786 213.631614 
L 69.318885 198.933093 
L 71.442985 185.797628 
L 73.567084 174.07909 
L 75.691184 163.433447 
L 77.815284 154.07145 
L 79.939383 145.753384 
L 82.063483 138.381312 
L 84.187583 131.808183 
L 86.311682 126.10572 
L 89.143815 119.363631 
L 91.267915 114.831917 
L 94.100048 109.338804 
L 96.224147 105.71266 
L 98.348247 102.54205 
L 100.472347 99.796986 
L 103.30448 96.602609 
L 105.428579 94.461436 
L 107.552679 92.609969 
L 109.676779 91.209573 
L 111.800878 90.043758 
L 116.049078 87.875383 
L 123.12941 84.876936 
L 132.333842 82.09638 
L 133.749908 81.762762 
L 142.95434 80.3663 
L 151.450738 79.746261 
L 155.698938 79.551274 
L 159.239104 79.267764 
L 164.195336 78.778252 
L 170.567635 78.783779 
L 171.983702 78.938309 
L 188.268466 78.855593 
L 191.100599 78.471811 
L 196.764864 77.354935 
L 199.596997 77.184325 
L 201.721097 77.111605 
L 204.55323 76.910422 
L 205.969296 76.79707 
L 208.801429 76.434054 
L 211.633562 76.075558 
L 220.129961 75.164811 
L 223.670127 74.875145 
L 225.794226 74.825077 
L 228.626359 74.716959 
L 239.954891 74.790584 
L 242.787024 74.720619 
L 247.035223 74.693369 
L 249.867356 74.701097 
L 253.407522 74.931822 
L 259.779821 75.103772 
L 264.02802 74.922739 
L 265.444087 74.842229 
L 269.692286 74.405483 
L 273.232452 74.174413 
L 279.604751 73.732735 
L 287.393116 73.584785 
L 291.641316 73.31038 
L 293.765415 73.166269 
L 295.181482 73.130588 
L 298.013615 73.356855 
L 300.845748 73.682904 
L 305.093947 73.53294 
L 308.634113 72.731149 
L 312.174279 72.105283 
L 317.130512 72.444864 
L 319.254611 72.578666 
L 321.378711 72.546689 
L 323.50281 72.514043 
L 325.62691 72.582042 
L 327.042977 72.732795 
L 331.291176 73.540542 
L 337.663475 74.455178 
L 339.787575 74.714207 
L 341.911674 74.734889 
L 343.327741 75.067331 
L 344.743807 75.174222 
L 347.57594 75.880223 
L 348.992006 76.201882 
L 349.70004 76.507608 
L 351.824139 77.159135 
L 353.240206 77.799368 
L 354.656272 78.180575 
L 356.072339 78.362609 
L 357.488405 78.37857 
L 358.904471 78.525275 
L 360.320538 78.494841 
L 365.27677 78.962434 
L 367.40087 79.593905 
L 368.816936 79.92731 
L 370.233003 80.26839 
L 370.941036 80.430115 
L 372.357103 80.422018 
L 373.773169 80.283665 
L 380.853501 78.751701 
L 381.561534 78.671951 
L 383.685634 79.341905 
L 385.809734 80.52159 
L 387.2258 81.478105 
L 390.765966 83.562168 
L 392.890066 84.374585 
L 394.306132 84.841957 
L 395.722199 85.576469 
L 397.138265 86.456668 
L 399.262365 88.045711 
L 399.970398 88.276608 
L 400.678431 88.186266 
L 402.802531 88.181958 
L 404.926631 86.987764 
L 405.634664 86.850309 
L 406.342697 86.831933 
L 407.05073 86.4956 
L 407.758763 85.938381 
L 408.466797 84.364945 
L 409.17483 83.48517 
L 409.882863 82.117802 
L 411.29893 81.660195 
L 411.29893 81.660195 
" clip-path="url(#p3ec45089c5)" style="fill: none; stroke: #ff7f0e; stroke-opacity: 0.3; stroke-width: 1.5; stroke-linecap: square"/>
   </g>
   <g id="line2d_27">
    <path d="M 57.28232 312.047142 
L 58.698387 303.81085 
L 60.114453 297.564894 
L 61.53052 292.56985 
L 62.946586 288.565898 
L 64.362653 285.364859 
L 65.778719 282.799263 
L 67.194786 280.703548 
L 68.610852 279.001191 
L 70.026918 277.653463 
L 71.442985 276.584508 
L 72.859051 275.749249 
L 74.983151 274.832332 
L 77.107251 274.198787 
L 79.939383 273.607081 
L 82.063483 273.256544 
L 91.975948 272.51503 
L 97.640214 272.336797 
L 101.888413 272.227166 
L 106.844646 272.177219 
L 111.092845 272.21579 
L 119.589244 272.438317 
L 133.749908 272.381554 
L 139.414174 272.551928 
L 143.662373 272.41877 
L 145.786473 272.35961 
L 149.326639 272.367687 
L 164.195336 272.357036 
L 168.443536 272.462623 
L 174.815835 272.697933 
L 179.064034 272.70032 
L 183.312233 272.642199 
L 188.976499 272.546687 
L 194.640765 272.590311 
L 198.180931 272.490632 
L 200.305031 272.395028 
L 202.42913 272.251399 
L 207.385363 272.108327 
L 214.465695 271.88294 
L 222.962094 271.951938 
L 226.50226 271.95355 
L 230.042426 271.9595 
L 234.290625 271.981804 
L 251.991455 272.2077 
L 255.531622 272.272666 
L 259.071788 272.338618 
L 262.611954 272.475796 
L 268.984253 272.35895 
L 271.108352 272.288962 
L 276.772618 272.320176 
L 281.020817 272.329571 
L 282.436884 272.310642 
L 285.269017 272.138285 
L 291.641316 272.191142 
L 304.385914 272.146769 
L 307.218046 272.316924 
L 309.342146 272.462714 
L 312.882312 272.457767 
L 316.422478 272.266851 
L 317.838545 272.22185 
L 324.210844 272.350575 
L 330.583143 272.611754 
L 333.415276 272.638994 
L 341.203641 272.83675 
L 347.57594 272.449962 
L 349.70004 272.378922 
L 355.364305 272.139135 
L 357.488405 272.125959 
L 358.904471 272.132115 
L 362.444637 272.063413 
L 364.568737 272.082546 
L 370.941036 272.233526 
L 374.481202 272.200056 
L 378.021368 272.615443 
L 381.561534 272.593406 
L 386.517767 272.301515 
L 390.057933 272.56595 
L 392.182033 272.260206 
L 399.970398 272.438863 
L 401.386464 272.072763 
L 402.802531 271.818024 
L 404.926631 271.610857 
L 405.634664 271.602228 
L 407.758763 272.4276 
L 408.466797 272.405705 
L 409.17483 272.851367 
L 409.882863 273.158987 
L 410.590896 273.268095 
L 411.29893 273.026495 
L 411.29893 273.026495 
" clip-path="url(#p3ec45089c5)" style="fill: none; stroke: #2ca02c; stroke-opacity: 0.3; stroke-width: 1.5; stroke-linecap: square"/>
   </g>
   <g id="line2d_28">
    <path d="M 57.28232 312.047142 
L 58.698387 290.384833 
L 60.822487 262.359312 
L 62.946586 237.983795 
L 65.070686 216.416623 
L 67.194786 197.229026 
L 69.318885 180.080751 
L 71.442985 164.756042 
L 73.567084 151.084415 
L 75.691184 138.664498 
L 77.815284 127.742168 
L 79.939383 118.037758 
L 82.063483 109.437007 
L 84.187583 101.768357 
L 86.311682 95.115483 
L 89.143815 87.249712 
L 91.267915 81.962712 
L 94.100048 75.554081 
L 96.224147 71.32358 
L 98.348247 67.624535 
L 100.472347 64.42196 
L 103.30448 60.695187 
L 105.428579 58.197152 
L 107.552679 56.037107 
L 109.676779 54.403311 
L 111.800878 53.043194 
L 116.049078 50.513423 
L 122.421377 47.306039 
L 125.253509 46.248165 
L 128.085642 45.184315 
L 130.209742 44.450572 
L 133.749908 43.382032 
L 142.95434 41.752826 
L 150.742705 41.048083 
L 154.990905 40.864323 
L 160.65517 40.281247 
L 164.195336 39.900103 
L 170.567635 39.906552 
L 171.983702 40.086837 
L 188.268466 39.990335 
L 191.100599 39.542589 
L 196.056831 38.342931 
L 198.180931 38.114377 
L 200.305031 38.043863 
L 201.721097 37.955682 
L 204.55323 37.720969 
L 205.969296 37.588725 
L 208.801429 37.165206 
L 210.925529 36.836872 
L 222.962094 35.400916 
L 227.210293 35.17734 
L 229.334392 35.17455 
L 232.166525 35.23526 
L 239.246858 35.283668 
L 242.787024 35.166198 
L 246.32719 35.131808 
L 250.575389 35.22305 
L 254.823588 35.508417 
L 260.487854 35.556511 
L 266.15212 35.201778 
L 268.276219 34.890976 
L 276.064585 34.302725 
L 278.188685 34.098486 
L 281.728851 34.045476 
L 283.85295 34.010522 
L 284.560983 33.946676 
L 285.97705 33.95878 
L 289.517216 33.749791 
L 290.933282 33.649321 
L 292.349349 33.421741 
L 295.889515 33.353217 
L 298.721648 33.689942 
L 300.845748 33.955531 
L 305.093947 33.780573 
L 307.92608 33.009372 
L 312.174279 32.114973 
L 315.714445 32.427865 
L 319.254611 32.667254 
L 321.378711 32.629947 
L 322.794777 32.600522 
L 325.62691 32.671192 
L 327.042977 32.84707 
L 331.291176 33.789442 
L 336.955442 34.671955 
L 338.371508 34.98575 
L 339.787575 35.158718 
L 341.203641 35.138266 
L 341.911674 35.182847 
L 343.327741 35.570696 
L 344.743807 35.695402 
L 347.57594 36.51907 
L 348.992006 36.894339 
L 349.70004 37.251019 
L 351.116106 37.72987 
L 351.824139 38.011134 
L 353.240206 38.758072 
L 354.656272 39.202814 
L 356.072339 39.415187 
L 357.488405 39.433808 
L 358.904471 39.604964 
L 360.320538 39.569458 
L 365.27677 40.114983 
L 367.40087 40.851699 
L 368.816936 41.240672 
L 370.233003 41.638598 
L 370.941036 41.827277 
L 372.357103 41.817831 
L 373.773169 41.656419 
L 380.145468 40.026711 
L 381.561534 39.776086 
L 383.685634 40.557699 
L 385.809734 41.933998 
L 387.2258 43.049932 
L 390.765966 45.481339 
L 392.890066 46.429159 
L 394.306132 46.974426 
L 395.722199 47.831357 
L 397.138265 48.858256 
L 399.262365 50.712139 
L 399.970398 50.981519 
L 400.678431 50.87612 
L 402.802531 50.871094 
L 404.926631 49.477868 
L 405.634664 49.317504 
L 406.342697 49.296065 
L 407.05073 48.903677 
L 407.758763 48.253587 
L 408.466797 46.417912 
L 409.17483 45.391508 
L 409.882863 43.796245 
L 410.590896 43.589492 
L 411.29893 43.26237 
L 411.29893 43.26237 
" clip-path="url(#p3ec45089c5)" style="fill: none; stroke-dasharray: 5.55,2.4; stroke-dashoffset: 0; stroke: #ff0000; stroke-opacity: 0.3; stroke-width: 1.5"/>
   </g>
   <g id="patch_3">
    <path d="M 39.58149 326.04375 
L 39.58149 18.118365 
" style="fill: none; stroke: #000000; stroke-width: 0.8; stroke-linejoin: miter; stroke-linecap: square"/>
   </g>
   <g id="patch_4">
    <path d="M 428.99976 326.04375 
L 428.99976 18.118365 
" style="fill: none; stroke: #000000; stroke-width: 0.8; stroke-linejoin: miter; stroke-linecap: square"/>
   </g>
   <g id="patch_5">
    <path d="M 39.58149 326.04375 
L 428.99976 326.04375 
" style="fill: none; stroke: #000000; stroke-width: 0.8; stroke-linejoin: miter; stroke-linecap: square"/>
   </g>
   <g id="patch_6">
    <path d="M 39.58149 18.118365 
L 428.99976 18.118365 
" style="fill: none; stroke: #000000; stroke-width: 0.8; stroke-linejoin: miter; stroke-linecap: square"/>
   </g>
   <g id="text_16">
    <!-- Cylinder MSD -->
    <g transform="translate(193.933125 12.118365) scale(0.12 -0.12)">
     <defs>
      <path id="DejaVuSans-43" d="M 4122 4306 
L 4122 3641 
Q 3803 3938 3442 4084 
Q 3081 4231 2675 4231 
Q 1875 4231 1450 3742 
Q 1025 3253 1025 2328 
Q 1025 1406 1450 917 
Q 1875 428 2675 428 
Q 3081 428 3442 575 
Q 3803 722 4122 1019 
L 4122 359 
Q 3791 134 3420 21 
Q 3050 -91 2638 -91 
Q 1578 -91 968 557 
Q 359 1206 359 2328 
Q 359 3453 968 4101 
Q 1578 4750 2638 4750 
Q 3056 4750 3426 4639 
Q 3797 4528 4122 4306 
z
" transform="scale(0.015625)"/>
      <path id="DejaVuSans-79" d="M 2059 -325 
Q 1816 -950 1584 -1140 
Q 1353 -1331 966 -1331 
L 506 -1331 
L 506 -850 
L 844 -850 
Q 1081 -850 1212 -737 
Q 1344 -625 1503 -206 
L 1606 56 
L 191 3500 
L 800 3500 
L 1894 763 
L 2988 3500 
L 3597 3500 
L 2059 -325 
z
" transform="scale(0.015625)"/>
      <path id="DejaVuSans-6c" d="M 603 4863 
L 1178 4863 
L 1178 0 
L 603 0 
L 603 4863 
z
" transform="scale(0.015625)"/>
      <path id="DejaVuSans-6e" d="M 3513 2113 
L 3513 0 
L 2938 0 
L 2938 2094 
Q 2938 2591 2744 2837 
Q 2550 3084 2163 3084 
Q 1697 3084 1428 2787 
Q 1159 2491 1159 1978 
L 1159 0 
L 581 0 
L 581 3500 
L 1159 3500 
L 1159 2956 
Q 1366 3272 1645 3428 
Q 1925 3584 2291 3584 
Q 2894 3584 3203 3211 
Q 3513 2838 3513 2113 
z
" transform="scale(0.015625)"/>
      <path id="DejaVuSans-64" d="M 2906 2969 
L 2906 4863 
L 3481 4863 
L 3481 0 
L 2906 0 
L 2906 525 
Q 2725 213 2448 61 
Q 2172 -91 1784 -91 
Q 1150 -91 751 415 
Q 353 922 353 1747 
Q 353 2572 751 3078 
Q 1150 3584 1784 3584 
Q 2172 3584 2448 3432 
Q 2725 3281 2906 2969 
z
M 947 1747 
Q 947 1113 1208 752 
Q 1469 391 1925 391 
Q 2381 391 2643 752 
Q 2906 1113 2906 1747 
Q 2906 2381 2643 2742 
Q 2381 3103 1925 3103 
Q 1469 3103 1208 2742 
Q 947 2381 947 1747 
z
" transform="scale(0.015625)"/>
      <path id="DejaVuSans-72" d="M 2631 2963 
Q 2534 3019 2420 3045 
Q 2306 3072 2169 3072 
Q 1681 3072 1420 2755 
Q 1159 2438 1159 1844 
L 1159 0 
L 581 0 
L 581 3500 
L 1159 3500 
L 1159 2956 
Q 1341 3275 1631 3429 
Q 1922 3584 2338 3584 
Q 2397 3584 2469 3576 
Q 2541 3569 2628 3553 
L 2631 2963 
z
" transform="scale(0.015625)"/>
      <path id="DejaVuSans-20" transform="scale(0.015625)"/>
     </defs>
     <use xlink:href="#DejaVuSans-43"/>
     <use xlink:href="#DejaVuSans-79" x="69.824219"/>
     <use xlink:href="#DejaVuSans-6c" x="129.003906"/>
     <use xlink:href="#DejaVuSans-69" x="156.787109"/>
     <use xlink:href="#DejaVuSans-6e" x="184.570312"/>
     <use xlink:href="#DejaVuSans-64" x="247.949219"/>
     <use xlink:href="#DejaVuSans-65" x="311.425781"/>
     <use xlink:href="#DejaVuSans-72" x="372.949219"/>
     <use xlink:href="#DejaVuSans-20" x="414.0625"/>
     <use xlink:href="#DejaVuSans-4d" x="445.849609"/>
     <use xlink:href="#DejaVuSans-53" x="532.128906"/>
     <use xlink:href="#DejaVuSans-44" x="595.605469"/>
    </g>
   </g>
   <g id="legend_1">
    <g id="line2d_29">
     <path d="M 344.90601 279.1525 
L 352.90601 279.1525 
L 360.90601 279.1525 
" style="fill: none; stroke: #1f77b4; stroke-opacity: 0.3; stroke-width: 1.5; stroke-linecap: square"/>
    </g>
    <g id="text_17">
     <!-- Mean MSD -->
     <g transform="translate(367.30601 281.9525) scale(0.08 -0.08)">
      <defs>
       <path id="DejaVuSans-61" d="M 2194 1759 
Q 1497 1759 1228 1600 
Q 959 1441 959 1056 
Q 959 750 1161 570 
Q 1363 391 1709 391 
Q 2188 391 2477 730 
Q 2766 1069 2766 1631 
L 2766 1759 
L 2194 1759 
z
M 3341 1997 
L 3341 0 
L 2766 0 
L 2766 531 
Q 2569 213 2275 61 
Q 1981 -91 1556 -91 
Q 1019 -91 701 211 
Q 384 513 384 1019 
Q 384 1609 779 1909 
Q 1175 2209 1959 2209 
L 2766 2209 
L 2766 2266 
Q 2766 2663 2505 2880 
Q 2244 3097 1772 3097 
Q 1472 3097 1187 3025 
Q 903 2953 641 2809 
L 641 3341 
Q 956 3463 1253 3523 
Q 1550 3584 1831 3584 
Q 2591 3584 2966 3190 
Q 3341 2797 3341 1997 
z
" transform="scale(0.015625)"/>
      </defs>
      <use xlink:href="#DejaVuSans-4d"/>
      <use xlink:href="#DejaVuSans-65" x="86.279297"/>
      <use xlink:href="#DejaVuSans-61" x="147.802734"/>
      <use xlink:href="#DejaVuSans-6e" x="209.082031"/>
      <use xlink:href="#DejaVuSans-20" x="272.460938"/>
      <use xlink:href="#DejaVuSans-4d" x="304.248047"/>
      <use xlink:href="#DejaVuSans-53" x="390.527344"/>
      <use xlink:href="#DejaVuSans-44" x="454.003906"/>
     </g>
    </g>
    <g id="line2d_30">
     <path d="M 344.90601 290.895 
L 352.90601 290.895 
L 360.90601 290.895 
" style="fill: none; stroke: #ff7f0e; stroke-opacity: 0.3; stroke-width: 1.5; stroke-linecap: square"/>
    </g>
    <g id="text_18">
     <!-- Mean MSD xy -->
     <g transform="translate(367.30601 293.695) scale(0.08 -0.08)">
      <defs>
       <path id="DejaVuSans-78" d="M 3513 3500 
L 2247 1797 
L 3578 0 
L 2900 0 
L 1881 1375 
L 863 0 
L 184 0 
L 1544 1831 
L 300 3500 
L 978 3500 
L 1906 2253 
L 2834 3500 
L 3513 3500 
z
" transform="scale(0.015625)"/>
      </defs>
      <use xlink:href="#DejaVuSans-4d"/>
      <use xlink:href="#DejaVuSans-65" x="86.279297"/>
      <use xlink:href="#DejaVuSans-61" x="147.802734"/>
      <use xlink:href="#DejaVuSans-6e" x="209.082031"/>
      <use xlink:href="#DejaVuSans-20" x="272.460938"/>
      <use xlink:href="#DejaVuSans-4d" x="304.248047"/>
      <use xlink:href="#DejaVuSans-53" x="390.527344"/>
      <use xlink:href="#DejaVuSans-44" x="454.003906"/>
      <use xlink:href="#DejaVuSans-20" x="531.005859"/>
      <use xlink:href="#DejaVuSans-78" x="562.792969"/>
      <use xlink:href="#DejaVuSans-79" x="621.972656"/>
     </g>
    </g>
    <g id="line2d_31">
     <path d="M 344.90601 302.6375 
L 352.90601 302.6375 
L 360.90601 302.6375 
" style="fill: none; stroke: #2ca02c; stroke-opacity: 0.3; stroke-width: 1.5; stroke-linecap: square"/>
    </g>
    <g id="text_19">
     <!-- Mean MSD z -->
     <g transform="translate(367.30601 305.4375) scale(0.08 -0.08)">
      <defs>
       <path id="DejaVuSans-7a" d="M 353 3500 
L 3084 3500 
L 3084 2975 
L 922 459 
L 3084 459 
L 3084 0 
L 275 0 
L 275 525 
L 2438 3041 
L 353 3041 
L 353 3500 
z
" transform="scale(0.015625)"/>
      </defs>
      <use xlink:href="#DejaVuSans-4d"/>
      <use xlink:href="#DejaVuSans-65" x="86.279297"/>
      <use xlink:href="#DejaVuSans-61" x="147.802734"/>
      <use xlink:href="#DejaVuSans-6e" x="209.082031"/>
      <use xlink:href="#DejaVuSans-20" x="272.460938"/>
      <use xlink:href="#DejaVuSans-4d" x="304.248047"/>
      <use xlink:href="#DejaVuSans-53" x="390.527344"/>
      <use xlink:href="#DejaVuSans-44" x="454.003906"/>
      <use xlink:href="#DejaVuSans-20" x="531.005859"/>
      <use xlink:href="#DejaVuSans-7a" x="562.792969"/>
     </g>
    </g>
    <g id="line2d_32">
     <path d="M 344.90601 314.38 
L 352.90601 314.38 
L 360.90601 314.38 
" style="fill: none; stroke-dasharray: 5.55,2.4; stroke-dashoffset: 0; stroke: #ff0000; stroke-opacity: 0.3; stroke-width: 1.5"/>
    </g>
    <g id="text_20">
     <!-- Adjusted XY -->
     <g transform="translate(367.30601 317.18) scale(0.08 -0.08)">
      <defs>
       <path id="DejaVuSans-41" d="M 2188 4044 
L 1331 1722 
L 3047 1722 
L 2188 4044 
z
M 1831 4666 
L 2547 4666 
L 4325 0 
L 3669 0 
L 3244 1197 
L 1141 1197 
L 716 0 
L 50 0 
L 1831 4666 
z
" transform="scale(0.015625)"/>
       <path id="DejaVuSans-6a" d="M 603 3500 
L 1178 3500 
L 1178 -63 
Q 1178 -731 923 -1031 
Q 669 -1331 103 -1331 
L -116 -1331 
L -116 -844 
L 38 -844 
Q 366 -844 484 -692 
Q 603 -541 603 -63 
L 603 3500 
z
M 603 4863 
L 1178 4863 
L 1178 4134 
L 603 4134 
L 603 4863 
z
" transform="scale(0.015625)"/>
       <path id="DejaVuSans-75" d="M 544 1381 
L 544 3500 
L 1119 3500 
L 1119 1403 
Q 1119 906 1312 657 
Q 1506 409 1894 409 
Q 2359 409 2629 706 
Q 2900 1003 2900 1516 
L 2900 3500 
L 3475 3500 
L 3475 0 
L 2900 0 
L 2900 538 
Q 2691 219 2414 64 
Q 2138 -91 1772 -91 
Q 1169 -91 856 284 
Q 544 659 544 1381 
z
M 1991 3584 
L 1991 3584 
z
" transform="scale(0.015625)"/>
       <path id="DejaVuSans-73" d="M 2834 3397 
L 2834 2853 
Q 2591 2978 2328 3040 
Q 2066 3103 1784 3103 
Q 1356 3103 1142 2972 
Q 928 2841 928 2578 
Q 928 2378 1081 2264 
Q 1234 2150 1697 2047 
L 1894 2003 
Q 2506 1872 2764 1633 
Q 3022 1394 3022 966 
Q 3022 478 2636 193 
Q 2250 -91 1575 -91 
Q 1294 -91 989 -36 
Q 684 19 347 128 
L 347 722 
Q 666 556 975 473 
Q 1284 391 1588 391 
Q 1994 391 2212 530 
Q 2431 669 2431 922 
Q 2431 1156 2273 1281 
Q 2116 1406 1581 1522 
L 1381 1569 
Q 847 1681 609 1914 
Q 372 2147 372 2553 
Q 372 3047 722 3315 
Q 1072 3584 1716 3584 
Q 2034 3584 2315 3537 
Q 2597 3491 2834 3397 
z
" transform="scale(0.015625)"/>
       <path id="DejaVuSans-74" d="M 1172 4494 
L 1172 3500 
L 2356 3500 
L 2356 3053 
L 1172 3053 
L 1172 1153 
Q 1172 725 1289 603 
Q 1406 481 1766 481 
L 2356 481 
L 2356 0 
L 1766 0 
Q 1100 0 847 248 
Q 594 497 594 1153 
L 594 3053 
L 172 3053 
L 172 3500 
L 594 3500 
L 594 4494 
L 1172 4494 
z
" transform="scale(0.015625)"/>
       <path id="DejaVuSans-58" d="M 403 4666 
L 1081 4666 
L 2241 2931 
L 3406 4666 
L 4084 4666 
L 2584 2425 
L 4184 0 
L 3506 0 
L 2194 1984 
L 872 0 
L 191 0 
L 1856 2491 
L 403 4666 
z
" transform="scale(0.015625)"/>
       <path id="DejaVuSans-59" d="M -13 4666 
L 666 4666 
L 1959 2747 
L 3244 4666 
L 3922 4666 
L 2272 2222 
L 2272 0 
L 1638 0 
L 1638 2222 
L -13 4666 
z
" transform="scale(0.015625)"/>
      </defs>
      <use xlink:href="#DejaVuSans-41"/>
      <use xlink:href="#DejaVuSans-64" x="66.658203"/>
      <use xlink:href="#DejaVuSans-6a" x="130.134766"/>
      <use xlink:href="#DejaVuSans-75" x="157.917969"/>
      <use xlink:href="#DejaVuSans-73" x="221.296875"/>
      <use xlink:href="#DejaVuSans-74" x="273.396484"/>
      <use xlink:href="#DejaVuSans-65" x="312.605469"/>
      <use xlink:href="#DejaVuSans-64" x="374.128906"/>
      <use xlink:href="#DejaVuSans-20" x="437.605469"/>
      <use xlink:href="#DejaVuSans-58" x="469.392578"/>
      <use xlink:href="#DejaVuSans-59" x="537.898438"/>
     </g>
    </g>
   </g>
  </g>
  <g id="axes_2">
   <g id="patch_7">
    <path d="M 39.58149 686.64351 
L 428.99976 686.64351 
L 428.99976 378.718125 
L 39.58149 378.718125 
z
" style="fill: #ffffff"/>
   </g>
   <g id="matplotlib.axis_3">
    <g id="xtick_7">
     <g id="line2d_33">
      <path d="M 57.28232 686.64351 
L 57.28232 378.718125 
" clip-path="url(#p5bdf51f4b4)" style="fill: none; stroke: #b0b0b0; stroke-width: 0.8; stroke-linecap: square"/>
     </g>
     <g id="line2d_34">
      <g>
       <use xlink:href="#md031384cca" x="57.28232" y="686.64351" style="stroke: #000000; stroke-width: 0.8"/>
      </g>
     </g>
     <g id="text_21">
      <!-- 0 -->
      <g transform="translate(54.10107 701.241948) scale(0.1 -0.1)">
       <use xlink:href="#DejaVuSans-30"/>
      </g>
     </g>
    </g>
    <g id="xtick_8">
     <g id="line2d_35">
      <path d="M 128.085642 686.64351 
L 128.085642 378.718125 
" clip-path="url(#p5bdf51f4b4)" style="fill: none; stroke: #b0b0b0; stroke-width: 0.8; stroke-linecap: square"/>
     </g>
     <g id="line2d_36">
      <g>
       <use xlink:href="#md031384cca" x="128.085642" y="686.64351" style="stroke: #000000; stroke-width: 0.8"/>
      </g>
     </g>
     <g id="text_22">
      <!-- 1 -->
      <g transform="translate(124.904392 701.241948) scale(0.1 -0.1)">
       <use xlink:href="#DejaVuSans-31"/>
      </g>
     </g>
    </g>
    <g id="xtick_9">
     <g id="line2d_37">
      <path d="M 198.888964 686.64351 
L 198.888964 378.718125 
" clip-path="url(#p5bdf51f4b4)" style="fill: none; stroke: #b0b0b0; stroke-width: 0.8; stroke-linecap: square"/>
     </g>
     <g id="line2d_38">
      <g>
       <use xlink:href="#md031384cca" x="198.888964" y="686.64351" style="stroke: #000000; stroke-width: 0.8"/>
      </g>
     </g>
     <g id="text_23">
      <!-- 2 -->
      <g transform="translate(195.707714 701.241948) scale(0.1 -0.1)">
       <use xlink:href="#DejaVuSans-32"/>
      </g>
     </g>
    </g>
    <g id="xtick_10">
     <g id="line2d_39">
      <path d="M 269.692286 686.64351 
L 269.692286 378.718125 
" clip-path="url(#p5bdf51f4b4)" style="fill: none; stroke: #b0b0b0; stroke-width: 0.8; stroke-linecap: square"/>
     </g>
     <g id="line2d_40">
      <g>
       <use xlink:href="#md031384cca" x="269.692286" y="686.64351" style="stroke: #000000; stroke-width: 0.8"/>
      </g>
     </g>
     <g id="text_24">
      <!-- 3 -->
      <g transform="translate(266.511036 701.241948) scale(0.1 -0.1)">
       <use xlink:href="#DejaVuSans-33"/>
      </g>
     </g>
    </g>
    <g id="xtick_11">
     <g id="line2d_41">
      <path d="M 340.495608 686.64351 
L 340.495608 378.718125 
" clip-path="url(#p5bdf51f4b4)" style="fill: none; stroke: #b0b0b0; stroke-width: 0.8; stroke-linecap: square"/>
     </g>
     <g id="line2d_42">
      <g>
       <use xlink:href="#md031384cca" x="340.495608" y="686.64351" style="stroke: #000000; stroke-width: 0.8"/>
      </g>
     </g>
     <g id="text_25">
      <!-- 4 -->
      <g transform="translate(337.314358 701.241948) scale(0.1 -0.1)">
       <use xlink:href="#DejaVuSans-34"/>
      </g>
     </g>
    </g>
    <g id="xtick_12">
     <g id="line2d_43">
      <path d="M 411.29893 686.64351 
L 411.29893 378.718125 
" clip-path="url(#p5bdf51f4b4)" style="fill: none; stroke: #b0b0b0; stroke-width: 0.8; stroke-linecap: square"/>
     </g>
     <g id="line2d_44">
      <g>
       <use xlink:href="#md031384cca" x="411.29893" y="686.64351" style="stroke: #000000; stroke-width: 0.8"/>
      </g>
     </g>
     <g id="text_26">
      <!-- 5 -->
      <g transform="translate(408.11768 701.241948) scale(0.1 -0.1)">
       <use xlink:href="#DejaVuSans-35"/>
      </g>
     </g>
    </g>
    <g id="text_27">
     <!-- Time [s] -->
     <g transform="translate(213.961719 714.920072) scale(0.1 -0.1)">
      <defs>
       <path id="DejaVuSans-5b" d="M 550 4863 
L 1875 4863 
L 1875 4416 
L 1125 4416 
L 1125 -397 
L 1875 -397 
L 1875 -844 
L 550 -844 
L 550 4863 
z
" transform="scale(0.015625)"/>
       <path id="DejaVuSans-5d" d="M 1947 4863 
L 1947 -844 
L 622 -844 
L 622 -397 
L 1369 -397 
L 1369 4416 
L 622 4416 
L 622 4863 
L 1947 4863 
z
" transform="scale(0.015625)"/>
      </defs>
      <use xlink:href="#DejaVuSans-54"/>
      <use xlink:href="#DejaVuSans-69" x="57.958984"/>
      <use xlink:href="#DejaVuSans-6d" x="85.742188"/>
      <use xlink:href="#DejaVuSans-65" x="183.154297"/>
      <use xlink:href="#DejaVuSans-20" x="244.677734"/>
      <use xlink:href="#DejaVuSans-5b" x="276.464844"/>
      <use xlink:href="#DejaVuSans-73" x="315.478516"/>
      <use xlink:href="#DejaVuSans-5d" x="367.578125"/>
     </g>
    </g>
   </g>
   <g id="matplotlib.axis_4">
    <g id="ytick_7">
     <g id="line2d_45">
      <path d="M 39.58149 672.646902 
L 428.99976 672.646902 
" clip-path="url(#p5bdf51f4b4)" style="fill: none; stroke: #b0b0b0; stroke-width: 0.8; stroke-linecap: square"/>
     </g>
     <g id="line2d_46">
      <g>
       <use xlink:href="#m56559a7158" x="39.58149" y="672.646902" style="stroke: #000000; stroke-width: 0.8"/>
      </g>
     </g>
     <g id="text_28">
      <!-- 0.0 -->
      <g transform="translate(16.678365 676.44612) scale(0.1 -0.1)">
       <use xlink:href="#DejaVuSans-30"/>
       <use xlink:href="#DejaVuSans-2e" x="63.623047"/>
       <use xlink:href="#DejaVuSans-30" x="95.410156"/>
      </g>
     </g>
    </g>
    <g id="ytick_8">
     <g id="line2d_47">
      <path d="M 39.58149 636.028722 
L 428.99976 636.028722 
" clip-path="url(#p5bdf51f4b4)" style="fill: none; stroke: #b0b0b0; stroke-width: 0.8; stroke-linecap: square"/>
     </g>
     <g id="line2d_48">
      <g>
       <use xlink:href="#m56559a7158" x="39.58149" y="636.028722" style="stroke: #000000; stroke-width: 0.8"/>
      </g>
     </g>
     <g id="text_29">
      <!-- 0.2 -->
      <g transform="translate(16.678365 639.827941) scale(0.1 -0.1)">
       <use xlink:href="#DejaVuSans-30"/>
       <use xlink:href="#DejaVuSans-2e" x="63.623047"/>
       <use xlink:href="#DejaVuSans-32" x="95.410156"/>
      </g>
     </g>
    </g>
    <g id="ytick_9">
     <g id="line2d_49">
      <path d="M 39.58149 599.410543 
L 428.99976 599.410543 
" clip-path="url(#p5bdf51f4b4)" style="fill: none; stroke: #b0b0b0; stroke-width: 0.8; stroke-linecap: square"/>
     </g>
     <g id="line2d_50">
      <g>
       <use xlink:href="#m56559a7158" x="39.58149" y="599.410543" style="stroke: #000000; stroke-width: 0.8"/>
      </g>
     </g>
     <g id="text_30">
      <!-- 0.4 -->
      <g transform="translate(16.678365 603.209762) scale(0.1 -0.1)">
       <use xlink:href="#DejaVuSans-30"/>
       <use xlink:href="#DejaVuSans-2e" x="63.623047"/>
       <use xlink:href="#DejaVuSans-34" x="95.410156"/>
      </g>
     </g>
    </g>
    <g id="ytick_10">
     <g id="line2d_51">
      <path d="M 39.58149 562.792364 
L 428.99976 562.792364 
" clip-path="url(#p5bdf51f4b4)" style="fill: none; stroke: #b0b0b0; stroke-width: 0.8; stroke-linecap: square"/>
     </g>
     <g id="line2d_52">
      <g>
       <use xlink:href="#m56559a7158" x="39.58149" y="562.792364" style="stroke: #000000; stroke-width: 0.8"/>
      </g>
     </g>
     <g id="text_31">
      <!-- 0.6 -->
      <g transform="translate(16.678365 566.591583) scale(0.1 -0.1)">
       <use xlink:href="#DejaVuSans-30"/>
       <use xlink:href="#DejaVuSans-2e" x="63.623047"/>
       <use xlink:href="#DejaVuSans-36" x="95.410156"/>
      </g>
     </g>
    </g>
    <g id="ytick_11">
     <g id="line2d_53">
      <path d="M 39.58149 526.174185 
L 428.99976 526.174185 
" clip-path="url(#p5bdf51f4b4)" style="fill: none; stroke: #b0b0b0; stroke-width: 0.8; stroke-linecap: square"/>
     </g>
     <g id="line2d_54">
      <g>
       <use xlink:href="#m56559a7158" x="39.58149" y="526.174185" style="stroke: #000000; stroke-width: 0.8"/>
      </g>
     </g>
     <g id="text_32">
      <!-- 0.8 -->
      <g transform="translate(16.678365 529.973404) scale(0.1 -0.1)">
       <use xlink:href="#DejaVuSans-30"/>
       <use xlink:href="#DejaVuSans-2e" x="63.623047"/>
       <use xlink:href="#DejaVuSans-38" x="95.410156"/>
      </g>
     </g>
    </g>
    <g id="ytick_12">
     <g id="line2d_55">
      <path d="M 39.58149 489.556006 
L 428.99976 489.556006 
" clip-path="url(#p5bdf51f4b4)" style="fill: none; stroke: #b0b0b0; stroke-width: 0.8; stroke-linecap: square"/>
     </g>
     <g id="line2d_56">
      <g>
       <use xlink:href="#m56559a7158" x="39.58149" y="489.556006" style="stroke: #000000; stroke-width: 0.8"/>
      </g>
     </g>
     <g id="text_33">
      <!-- 1.0 -->
      <g transform="translate(16.678365 493.355225) scale(0.1 -0.1)">
       <use xlink:href="#DejaVuSans-31"/>
       <use xlink:href="#DejaVuSans-2e" x="63.623047"/>
       <use xlink:href="#DejaVuSans-30" x="95.410156"/>
      </g>
     </g>
    </g>
    <g id="ytick_13">
     <g id="line2d_57">
      <path d="M 39.58149 452.937827 
L 428.99976 452.937827 
" clip-path="url(#p5bdf51f4b4)" style="fill: none; stroke: #b0b0b0; stroke-width: 0.8; stroke-linecap: square"/>
     </g>
     <g id="line2d_58">
      <g>
       <use xlink:href="#m56559a7158" x="39.58149" y="452.937827" style="stroke: #000000; stroke-width: 0.8"/>
      </g>
     </g>
     <g id="text_34">
      <!-- 1.2 -->
      <g transform="translate(16.678365 456.737045) scale(0.1 -0.1)">
       <use xlink:href="#DejaVuSans-31"/>
       <use xlink:href="#DejaVuSans-2e" x="63.623047"/>
       <use xlink:href="#DejaVuSans-32" x="95.410156"/>
      </g>
     </g>
    </g>
    <g id="ytick_14">
     <g id="line2d_59">
      <path d="M 39.58149 416.319647 
L 428.99976 416.319647 
" clip-path="url(#p5bdf51f4b4)" style="fill: none; stroke: #b0b0b0; stroke-width: 0.8; stroke-linecap: square"/>
     </g>
     <g id="line2d_60">
      <g>
       <use xlink:href="#m56559a7158" x="39.58149" y="416.319647" style="stroke: #000000; stroke-width: 0.8"/>
      </g>
     </g>
     <g id="text_35">
      <!-- 1.4 -->
      <g transform="translate(16.678365 420.118866) scale(0.1 -0.1)">
       <use xlink:href="#DejaVuSans-31"/>
       <use xlink:href="#DejaVuSans-2e" x="63.623047"/>
       <use xlink:href="#DejaVuSans-34" x="95.410156"/>
      </g>
     </g>
    </g>
    <g id="ytick_15">
     <g id="line2d_61">
      <path d="M 39.58149 379.701468 
L 428.99976 379.701468 
" clip-path="url(#p5bdf51f4b4)" style="fill: none; stroke: #b0b0b0; stroke-width: 0.8; stroke-linecap: square"/>
     </g>
     <g id="line2d_62">
      <g>
       <use xlink:href="#m56559a7158" x="39.58149" y="379.701468" style="stroke: #000000; stroke-width: 0.8"/>
      </g>
     </g>
     <g id="text_36">
      <!-- 1.6 -->
      <g transform="translate(16.678365 383.500687) scale(0.1 -0.1)">
       <use xlink:href="#DejaVuSans-31"/>
       <use xlink:href="#DejaVuSans-2e" x="63.623047"/>
       <use xlink:href="#DejaVuSans-36" x="95.410156"/>
      </g>
     </g>
    </g>
    <g id="text_37">
     <!-- MSD [m^2] -->
     <g transform="translate(10.598677 561.75113) rotate(-90) scale(0.1 -0.1)">
      <defs>
       <path id="DejaVuSans-5e" d="M 2988 4666 
L 4684 2925 
L 4056 2925 
L 2681 4159 
L 1306 2925 
L 678 2925 
L 2375 4666 
L 2988 4666 
z
" transform="scale(0.015625)"/>
      </defs>
      <use xlink:href="#DejaVuSans-4d"/>
      <use xlink:href="#DejaVuSans-53" x="86.279297"/>
      <use xlink:href="#DejaVuSans-44" x="149.755859"/>
      <use xlink:href="#DejaVuSans-20" x="226.757812"/>
      <use xlink:href="#DejaVuSans-5b" x="258.544922"/>
      <use xlink:href="#DejaVuSans-6d" x="297.558594"/>
      <use xlink:href="#DejaVuSans-5e" x="394.970703"/>
      <use xlink:href="#DejaVuSans-32" x="478.759766"/>
      <use xlink:href="#DejaVuSans-5d" x="542.382812"/>
     </g>
    </g>
    <g id="text_38">
     <!-- 1e−12 -->
     <g transform="translate(39.58149 375.718125) scale(0.1 -0.1)">
      <use xlink:href="#DejaVuSans-31"/>
      <use xlink:href="#DejaVuSans-65" x="63.623047"/>
      <use xlink:href="#DejaVuSans-2212" x="125.146484"/>
      <use xlink:href="#DejaVuSans-31" x="208.935547"/>
      <use xlink:href="#DejaVuSans-32" x="272.558594"/>
     </g>
    </g>
   </g>
   <g id="line2d_63">
    <path d="M 57.28232 672.646902 
L 58.698387 615.640897 
L 60.114453 572.410642 
L 61.53052 537.838348 
L 62.946586 510.125712 
L 64.362653 487.9703 
L 65.778719 470.212989 
L 67.194786 455.707879 
L 68.610852 443.92532 
L 70.026918 434.597266 
L 71.442985 427.198687 
L 72.859051 421.417592 
L 74.275118 416.971872 
L 75.691184 413.411084 
L 77.107251 410.686353 
L 77.815284 409.470155 
L 80.647417 405.638715 
L 82.063483 404.164785 
L 84.187583 402.880828 
L 87.727749 400.553198 
L 90.559882 399.380202 
L 91.267915 399.136863 
L 93.392015 398.935767 
L 94.808081 398.679351 
L 95.516114 398.469176 
L 96.224147 398.37513 
L 99.05628 397.34527 
L 100.472347 396.921041 
L 101.888413 397.040131 
L 102.596446 397.088744 
L 104.012513 396.863716 
L 104.720546 396.797605 
L 105.428579 396.86777 
L 108.260712 396.677686 
L 108.968745 396.83104 
L 111.092845 396.961393 
L 113.924978 397.579508 
L 114.633011 397.646854 
L 116.757111 398.141466 
L 118.173177 398.452978 
L 120.297277 398.454028 
L 121.00531 398.320765 
L 121.713343 398.383816 
L 123.12941 398.391587 
L 125.961543 398.414265 
L 127.377609 398.293843 
L 128.085642 398.2593 
L 128.793675 398.110086 
L 130.917775 398.015818 
L 131.625808 397.93041 
L 133.749908 398.1087 
L 135.165974 398.502288 
L 138.706141 399.241949 
L 140.122207 399.256337 
L 141.538273 399.185537 
L 145.07844 397.888172 
L 147.202539 398.143161 
L 147.910572 398.016595 
L 150.034672 397.974255 
L 151.450738 397.68914 
L 155.698938 397.355724 
L 157.115004 397.713684 
L 158.531071 398.005711 
L 159.239104 397.875297 
L 162.071237 397.938341 
L 163.487303 397.838029 
L 164.90337 397.957103 
L 165.611403 398.017898 
L 167.735502 398.48748 
L 169.151569 398.935412 
L 169.859602 399.330479 
L 171.983702 399.958453 
L 172.691735 400.178488 
L 174.815835 400.298462 
L 176.231901 400.174696 
L 177.647968 400.303031 
L 180.4801 400.269544 
L 181.188134 400.148912 
L 181.896167 400.164363 
L 183.312233 399.91271 
L 184.7283 399.616842 
L 185.436333 399.232719 
L 186.144366 399.015836 
L 190.392565 399.579061 
L 191.808632 399.742038 
L 193.224698 399.630116 
L 194.640765 399.553575 
L 195.348798 399.288946 
L 199.596997 398.504112 
L 200.305031 398.201954 
L 201.721097 397.32268 
L 203.845197 396.974117 
L 205.261263 396.504135 
L 205.969296 396.477018 
L 206.677329 396.26739 
L 207.385363 396.217606 
L 209.509462 395.664114 
L 211.633562 395.33551 
L 213.049628 394.762343 
L 213.757662 394.605506 
L 215.173728 394.635671 
L 215.881761 394.473384 
L 218.005861 394.626681 
L 218.713894 394.90204 
L 219.421927 395.004909 
L 220.129961 394.992965 
L 221.546027 395.101956 
L 222.962094 395.135187 
L 224.37816 395.306742 
L 225.794226 395.358168 
L 227.918326 394.794971 
L 229.334392 394.974601 
L 231.458492 395.536872 
L 232.874559 395.462525 
L 234.290625 395.341905 
L 235.706691 395.43826 
L 236.414725 395.599888 
L 237.830791 396.130198 
L 239.246858 396.298176 
L 244.20309 396.399062 
L 245.619156 396.104236 
L 246.32719 396.163096 
L 247.035223 396.47922 
L 249.159323 396.592437 
L 249.867356 396.481247 
L 251.283422 396.691214 
L 253.407522 397.312633 
L 256.239655 397.324045 
L 257.655721 397.543453 
L 259.071788 397.811525 
L 260.487854 398.464353 
L 261.903921 398.766156 
L 264.02802 398.717329 
L 264.736053 398.591866 
L 266.15212 398.856268 
L 266.860153 398.835185 
L 268.276219 398.354334 
L 269.692286 397.665152 
L 270.400319 397.414303 
L 272.524419 397.491848 
L 273.232452 397.381087 
L 273.940485 397.457715 
L 274.648518 397.683134 
L 276.064585 397.718567 
L 277.480651 397.585571 
L 278.896718 397.455868 
L 280.312784 397.666617 
L 281.728851 397.846394 
L 282.436884 397.617895 
L 283.85295 396.579341 
L 284.560983 396.435964 
L 285.269017 396.424955 
L 285.97705 396.54886 
L 287.393116 396.23195 
L 290.225249 397.017009 
L 293.765415 396.617811 
L 295.181482 396.67247 
L 297.305581 396.340344 
L 298.013615 396.511359 
L 298.721648 396.4241 
L 302.261814 396.647074 
L 303.67788 396.463317 
L 305.093947 396.590296 
L 305.80198 396.691817 
L 306.510013 397.020525 
L 307.92608 398.210397 
L 309.342146 398.670435 
L 310.758213 398.853926 
L 312.174279 398.750169 
L 313.590345 398.486275 
L 315.714445 397.838216 
L 317.130512 396.910988 
L 318.546578 397.030447 
L 319.254611 397.063913 
L 321.378711 397.765107 
L 324.210844 397.894284 
L 324.918877 398.158545 
L 326.334943 398.460887 
L 327.75101 398.919804 
L 329.167076 399.72375 
L 329.875109 399.784566 
L 331.291176 399.582253 
L 334.123309 400.064146 
L 334.831342 400.096946 
L 335.539375 400.458117 
L 337.663475 400.464015 
L 339.079541 401.139551 
L 339.787575 401.435887 
L 340.495608 401.454093 
L 342.619707 400.824799 
L 348.283973 398.176898 
L 348.992006 398.235056 
L 352.532172 397.46372 
L 353.240206 397.250972 
L 353.948239 396.84026 
L 356.072339 396.182836 
L 356.780372 396.170821 
L 357.488405 396.339647 
L 358.196438 396.689097 
L 358.904471 396.382256 
L 361.028571 396.436751 
L 361.736604 396.341937 
L 362.444637 395.906746 
L 363.152671 395.760206 
L 363.860704 395.816672 
L 367.40087 396.982711 
L 368.816936 397.765621 
L 370.233003 397.511518 
L 370.941036 397.084151 
L 373.773169 396.715394 
L 374.481202 396.852496 
L 375.189235 397.477817 
L 376.605302 399.360994 
L 377.313335 399.648039 
L 378.729402 399.789064 
L 379.437435 399.67902 
L 380.853501 399.781219 
L 381.561534 399.574996 
L 382.269568 399.241572 
L 382.977601 398.764038 
L 383.685634 397.914833 
L 384.393667 397.617953 
L 385.1017 397.685708 
L 385.809734 397.373045 
L 386.517767 397.554721 
L 387.2258 397.982993 
L 388.641867 399.589581 
L 389.3499 399.977259 
L 390.057933 399.384964 
L 391.473999 397.661898 
L 392.182033 397.268814 
L 392.890066 397.372259 
L 393.598099 397.983033 
L 395.014166 397.616017 
L 395.722199 397.307141 
L 396.430232 397.991816 
L 397.138265 398.396394 
L 397.846298 397.953128 
L 398.554332 398.645762 
L 399.970398 398.505357 
L 400.678431 397.575178 
L 401.386464 395.971461 
L 402.094498 394.876881 
L 404.218597 392.800201 
L 405.634664 392.714733 
L 406.342697 394.635083 
L 407.05073 397.068969 
L 407.758763 398.4274 
L 408.466797 398.275858 
L 409.17483 401.360424 
L 409.882863 403.489565 
L 410.590896 404.24473 
L 411.29893 402.572544 
L 411.29893 402.572544 
" clip-path="url(#p5bdf51f4b4)" style="fill: none; stroke: #1f77b4; stroke-opacity: 0.3; stroke-width: 1.5; stroke-linecap: square"/>
   </g>
   <g id="line2d_64">
    <path d="M 57.28232 398.010558 
L 411.29893 398.010558 
L 411.29893 398.010558 
" clip-path="url(#p5bdf51f4b4)" style="fill: none; stroke-dasharray: 5.55,2.4; stroke-dashoffset: 0; stroke: #ff0000; stroke-opacity: 0.3; stroke-width: 1.5"/>
   </g>
   <g id="patch_8">
    <path d="M 39.58149 686.64351 
L 39.58149 378.718125 
" style="fill: none; stroke: #000000; stroke-width: 0.8; stroke-linejoin: miter; stroke-linecap: square"/>
   </g>
   <g id="patch_9">
    <path d="M 428.99976 686.64351 
L 428.99976 378.718125 
" style="fill: none; stroke: #000000; stroke-width: 0.8; stroke-linejoin: miter; stroke-linecap: square"/>
   </g>
   <g id="patch_10">
    <path d="M 39.58149 686.64351 
L 428.99976 686.64351 
" style="fill: none; stroke: #000000; stroke-width: 0.8; stroke-linejoin: miter; stroke-linecap: square"/>
   </g>
   <g id="patch_11">
    <path d="M 39.58149 378.718125 
L 428.99976 378.718125 
" style="fill: none; stroke: #000000; stroke-width: 0.8; stroke-linejoin: miter; stroke-linecap: square"/>
   </g>
   <g id="text_39">
    <!-- Comparison -->
    <g transform="translate(198.366562 372.718125) scale(0.12 -0.12)">
     <defs>
      <path id="DejaVuSans-6f" d="M 1959 3097 
Q 1497 3097 1228 2736 
Q 959 2375 959 1747 
Q 959 1119 1226 758 
Q 1494 397 1959 397 
Q 2419 397 2687 759 
Q 2956 1122 2956 1747 
Q 2956 2369 2687 2733 
Q 2419 3097 1959 3097 
z
M 1959 3584 
Q 2709 3584 3137 3096 
Q 3566 2609 3566 1747 
Q 3566 888 3137 398 
Q 2709 -91 1959 -91 
Q 1206 -91 779 398 
Q 353 888 353 1747 
Q 353 2609 779 3096 
Q 1206 3584 1959 3584 
z
" transform="scale(0.015625)"/>
      <path id="DejaVuSans-70" d="M 1159 525 
L 1159 -1331 
L 581 -1331 
L 581 3500 
L 1159 3500 
L 1159 2969 
Q 1341 3281 1617 3432 
Q 1894 3584 2278 3584 
Q 2916 3584 3314 3078 
Q 3713 2572 3713 1747 
Q 3713 922 3314 415 
Q 2916 -91 2278 -91 
Q 1894 -91 1617 61 
Q 1341 213 1159 525 
z
M 3116 1747 
Q 3116 2381 2855 2742 
Q 2594 3103 2138 3103 
Q 1681 3103 1420 2742 
Q 1159 2381 1159 1747 
Q 1159 1113 1420 752 
Q 1681 391 2138 391 
Q 2594 391 2855 752 
Q 3116 1113 3116 1747 
z
" transform="scale(0.015625)"/>
     </defs>
     <use xlink:href="#DejaVuSans-43"/>
     <use xlink:href="#DejaVuSans-6f" x="69.824219"/>
     <use xlink:href="#DejaVuSans-6d" x="131.005859"/>
     <use xlink:href="#DejaVuSans-70" x="228.417969"/>
     <use xlink:href="#DejaVuSans-61" x="291.894531"/>
     <use xlink:href="#DejaVuSans-72" x="353.173828"/>
     <use xlink:href="#DejaVuSans-69" x="394.287109"/>
     <use xlink:href="#DejaVuSans-73" x="422.070312"/>
     <use xlink:href="#DejaVuSans-6f" x="474.169922"/>
     <use xlink:href="#DejaVuSans-6e" x="535.351562"/>
    </g>
   </g>
   <g id="legend_2">
    <g id="patch_12">
     <path d="M 286.99976 681.64351 
L 421.99976 681.64351 
Q 423.99976 681.64351 423.99976 679.64351 
L 423.99976 650.165385 
Q 423.99976 648.165385 421.99976 648.165385 
L 286.99976 648.165385 
Q 284.99976 648.165385 284.99976 650.165385 
L 284.99976 679.64351 
Q 284.99976 681.64351 286.99976 681.64351 
z
" style="fill: #ffffff; opacity: 0.8; stroke: #cccccc; stroke-linejoin: miter"/>
    </g>
    <g id="line2d_65">
     <path d="M 288.99976 656.365385 
L 298.99976 656.365385 
L 308.99976 656.365385 
" style="fill: none; stroke: #1f77b4; stroke-opacity: 0.3; stroke-width: 1.5; stroke-linecap: square"/>
    </g>
    <g id="text_40">
     <!-- $|&lt;x_{cyl}&gt; - &lt;x_{circ}&gt;|$ -->
     <g transform="translate(316.99976 659.865385) scale(0.1 -0.1)">
      <defs>
       <path id="DejaVuSans-7c" d="M 1344 4891 
L 1344 -1509 
L 813 -1509 
L 813 4891 
L 1344 4891 
z
" transform="scale(0.015625)"/>
       <path id="DejaVuSans-3c" d="M 4684 3150 
L 1459 2003 
L 4684 863 
L 4684 294 
L 678 1747 
L 678 2266 
L 4684 3719 
L 4684 3150 
z
" transform="scale(0.015625)"/>
       <path id="DejaVuSans-Oblique-78" d="M 3841 3500 
L 2234 1784 
L 3219 0 
L 2559 0 
L 1819 1388 
L 531 0 
L -166 0 
L 1556 1844 
L 641 3500 
L 1300 3500 
L 1972 2234 
L 3144 3500 
L 3841 3500 
z
" transform="scale(0.015625)"/>
       <path id="DejaVuSans-Oblique-63" d="M 3431 3366 
L 3316 2797 
Q 3109 2947 2876 3022 
Q 2644 3097 2394 3097 
Q 2119 3097 1870 3000 
Q 1622 2903 1453 2725 
Q 1184 2453 1037 2087 
Q 891 1722 891 1331 
Q 891 859 1127 628 
Q 1363 397 1844 397 
Q 2081 397 2348 469 
Q 2616 541 2906 684 
L 2797 116 
Q 2547 13 2283 -39 
Q 2019 -91 1741 -91 
Q 1044 -91 669 257 
Q 294 606 294 1253 
Q 294 1797 489 2255 
Q 684 2713 1069 3078 
Q 1331 3328 1684 3456 
Q 2038 3584 2456 3584 
Q 2700 3584 2940 3529 
Q 3181 3475 3431 3366 
z
" transform="scale(0.015625)"/>
       <path id="DejaVuSans-Oblique-79" d="M 1588 -325 
Q 1188 -997 936 -1164 
Q 684 -1331 294 -1331 
L -159 -1331 
L -63 -850 
L 269 -850 
Q 509 -850 678 -719 
Q 847 -588 1056 -206 
L 1234 128 
L 459 3500 
L 1069 3500 
L 1650 819 
L 3256 3500 
L 3859 3500 
L 1588 -325 
z
" transform="scale(0.015625)"/>
       <path id="DejaVuSans-Oblique-6c" d="M 1172 4863 
L 1747 4863 
L 800 0 
L 225 0 
L 1172 4863 
z
" transform="scale(0.015625)"/>
       <path id="DejaVuSans-3e" d="M 678 3150 
L 678 3719 
L 4684 2266 
L 4684 1747 
L 678 294 
L 678 863 
L 3897 2003 
L 678 3150 
z
" transform="scale(0.015625)"/>
       <path id="DejaVuSans-Oblique-69" d="M 1172 4863 
L 1747 4863 
L 1606 4134 
L 1031 4134 
L 1172 4863 
z
M 909 3500 
L 1484 3500 
L 800 0 
L 225 0 
L 909 3500 
z
" transform="scale(0.015625)"/>
       <path id="DejaVuSans-Oblique-72" d="M 2853 2969 
Q 2766 3016 2653 3041 
Q 2541 3066 2413 3066 
Q 1953 3066 1609 2717 
Q 1266 2369 1153 1784 
L 800 0 
L 225 0 
L 909 3500 
L 1484 3500 
L 1375 2956 
Q 1603 3259 1920 3421 
Q 2238 3584 2597 3584 
Q 2691 3584 2781 3573 
Q 2872 3563 2963 3538 
L 2853 2969 
z
" transform="scale(0.015625)"/>
      </defs>
      <use xlink:href="#DejaVuSans-7c" transform="translate(0 0.578125)"/>
      <use xlink:href="#DejaVuSans-3c" transform="translate(53.173828 0.578125)"/>
      <use xlink:href="#DejaVuSans-Oblique-78" transform="translate(156.445312 0.578125)"/>
      <use xlink:href="#DejaVuSans-Oblique-63" transform="translate(215.625 -15.828125) scale(0.7)"/>
      <use xlink:href="#DejaVuSans-Oblique-79" transform="translate(254.111328 -15.828125) scale(0.7)"/>
      <use xlink:href="#DejaVuSans-Oblique-6c" transform="translate(295.537109 -15.828125) scale(0.7)"/>
      <use xlink:href="#DejaVuSans-3e" transform="translate(337.202148 0.578125)"/>
      <use xlink:href="#DejaVuSans-2212" transform="translate(459.956055 0.578125)"/>
      <use xlink:href="#DejaVuSans-3c" transform="translate(582.709961 0.578125)"/>
      <use xlink:href="#DejaVuSans-Oblique-78" transform="translate(685.981445 0.578125)"/>
      <use xlink:href="#DejaVuSans-Oblique-63" transform="translate(745.161133 -15.828125) scale(0.7)"/>
      <use xlink:href="#DejaVuSans-Oblique-69" transform="translate(783.647461 -15.828125) scale(0.7)"/>
      <use xlink:href="#DejaVuSans-Oblique-72" transform="translate(803.095703 -15.828125) scale(0.7)"/>
      <use xlink:href="#DejaVuSans-Oblique-63" transform="translate(831.875 -15.828125) scale(0.7)"/>
      <use xlink:href="#DejaVuSans-3e" transform="translate(892.578125 0.578125)"/>
      <use xlink:href="#DejaVuSans-7c" transform="translate(995.849609 0.578125)"/>
     </g>
    </g>
    <g id="line2d_66">
     <path d="M 288.99976 672.063823 
L 298.99976 672.063823 
L 308.99976 672.063823 
" style="fill: none; stroke-dasharray: 5.55,2.4; stroke-dashoffset: 0; stroke: #ff0000; stroke-opacity: 0.3; stroke-width: 1.5"/>
    </g>
    <g id="text_41">
     <!-- Axial MSD Limit -->
     <g transform="translate(316.99976 675.563823) scale(0.1 -0.1)">
      <defs>
       <path id="DejaVuSans-4c" d="M 628 4666 
L 1259 4666 
L 1259 531 
L 3531 531 
L 3531 0 
L 628 0 
L 628 4666 
z
" transform="scale(0.015625)"/>
      </defs>
      <use xlink:href="#DejaVuSans-41"/>
      <use xlink:href="#DejaVuSans-78" x="68.408203"/>
      <use xlink:href="#DejaVuSans-69" x="127.587891"/>
      <use xlink:href="#DejaVuSans-61" x="155.371094"/>
      <use xlink:href="#DejaVuSans-6c" x="216.650391"/>
      <use xlink:href="#DejaVuSans-20" x="244.433594"/>
      <use xlink:href="#DejaVuSans-4d" x="276.220703"/>
      <use xlink:href="#DejaVuSans-53" x="362.5"/>
      <use xlink:href="#DejaVuSans-44" x="425.976562"/>
      <use xlink:href="#DejaVuSans-20" x="502.978516"/>
      <use xlink:href="#DejaVuSans-4c" x="534.765625"/>
      <use xlink:href="#DejaVuSans-69" x="590.478516"/>
      <use xlink:href="#DejaVuSans-6d" x="618.261719"/>
      <use xlink:href="#DejaVuSans-69" x="715.673828"/>
      <use xlink:href="#DejaVuSans-74" x="743.457031"/>
     </g>
    </g>
   </g>
  </g>
 </g>
 <defs>
  <clipPath id="p3ec45089c5">
   <rect x="39.58149" y="18.118365" width="389.41827" height="307.925385"/>
  </clipPath>
  <clipPath id="p5bdf51f4b4">
   <rect x="39.58149" y="378.718125" width="389.41827" height="307.925385"/>
  </clipPath>
 </defs>
</svg>
